<?xml version="1.0" encoding="utf-8" standalone="no"?>
<!DOCTYPE svg PUBLIC "-//W3C//DTD SVG 1.1//EN"
  "http://www.w3.org/Graphics/SVG/1.1/DTD/svg11.dtd">
<!-- Created with matplotlib (http://matplotlib.org/) -->
<svg height="316pt" version="1.1" viewBox="0 0 446 316" width="446pt" xmlns="http://www.w3.org/2000/svg" xmlns:xlink="http://www.w3.org/1999/xlink">
 <defs>
  <style type="text/css">
*{stroke-linecap:butt;stroke-linejoin:round;stroke-miterlimit:100000;}
  </style>
 </defs>
 <g id="figure_1">
  <g id="patch_1">
   <path d="M 0 316.8 
L 446.4 316.8 
L 446.4 0 
L 0 0 
L 0 316.8 
z
" style="fill:none;"/>
  </g>
  <g id="patch_2">
   <path d="M 0 316.8 
L 446.4 316.8 
L 446.4 0 
L 0 0 
L 0 316.8 
z
" style="fill:none;"/>
  </g>
  <g id="pane3d_1">
   <g id="patch_3">
    <path d="M 59.177218 246.798365 
L 186.939234 169.126183 
L 184.812132 20.707392 
L 49.926546 90.49425 
" style="fill:#f2f2f2;opacity:0.5;stroke:#f2f2f2;stroke-linejoin:miter;stroke-width:0.3;"/>
   </g>
  </g>
  <g id="pane3d_2">
   <g id="patch_4">
    <path d="M 186.939234 169.126183 
L 393.901687 212.549945 
L 402.560748 59.655645 
L 184.812132 20.707392 
" style="fill:#e6e6e6;opacity:0.5;stroke:#e6e6e6;stroke-linejoin:miter;stroke-width:0.3;"/>
   </g>
  </g>
  <g id="pane3d_3">
   <g id="patch_5">
    <path d="M 59.177218 246.798365 
L 276.929684 297.372411 
L 393.901687 212.549945 
L 186.939234 169.126183 
" style="fill:#ececec;opacity:0.5;stroke:#ececec;stroke-linejoin:miter;stroke-width:0.3;"/>
   </g>
  </g>
  <g id="axis3d_1">
   <g id="line2d_1">
    <path d="M 59.177218 246.798365 
L 276.929684 297.372411 
" style="fill:none;stroke:#000000;stroke-linecap:round;stroke-width:0.75;"/>
   </g>
   <g id="Line3DCollection_1">
    <path d="M 63.341407 247.765517 
L 190.91012 169.959333 
L 188.98105 21.453078 
" style="fill:none;stroke:#e6e6e6;stroke-width:1.75;"/>
    <path d="M 113.898981 259.507754 
L 239.080141 180.066111 
L 239.581097 30.503805 
" style="fill:none;stroke:#e6e6e6;stroke-width:1.75;"/>
    <path d="M 165.565599 271.507572 
L 288.229327 190.378332 
L 291.262586 39.747969 
" style="fill:none;stroke:#e6e6e6;stroke-width:1.75;"/>
    <path d="M 218.378159 283.773541 
L 338.387838 200.902324 
L 344.060561 49.191835 
" style="fill:none;stroke:#e6e6e6;stroke-width:1.75;"/>
    <path d="M 272.375213 296.314613 
L 389.587089 211.644679 
L 398.011596 58.841948 
" style="fill:none;stroke:#e6e6e6;stroke-width:1.75;"/>
   </g>
   <g id="xtick_1">
    <g id="line2d_2">
     <path clip-path="url(#p5eafe180db)" d="M 229.232432 154.118919 
" style="fill:none;stroke:#ffffff;stroke-linecap:round;"/>
    </g>
    <g id="line2d_3">
     <path d="M 64.440324 247.09527 
L 61.139482 249.108506 
" style="fill:none;stroke:#262626;stroke-linecap:round;stroke-width:1.75;"/>
    </g>
    <g id="text_1">
     <!-- −1.0 -->
     <defs>
      <path d="M 4.9375 29.6875 
L 4.9375 36.8125 
L 53.515625 36.8125 
L 53.515625 29.6875 
z
" id="LiberationSans-2212"/>
      <path d="M 9.125 0 
L 9.125 10.6875 
L 18.65625 10.6875 
L 18.65625 0 
z
" id="LiberationSans-2e"/>
      <path d="M 51.703125 34.421875 
Q 51.703125 24.515625 49.828125 17.75 
Q 47.953125 10.984375 44.703125 6.8125 
Q 41.453125 2.640625 37.0625 0.828125 
Q 32.671875 -0.984375 27.6875 -0.984375 
Q 22.65625 -0.984375 18.3125 0.828125 
Q 13.96875 2.640625 10.765625 6.78125 
Q 7.5625 10.9375 5.734375 17.703125 
Q 3.90625 24.46875 3.90625 34.421875 
Q 3.90625 44.828125 5.734375 51.640625 
Q 7.5625 58.453125 10.78125 62.5 
Q 14.015625 66.546875 18.40625 68.1875 
Q 22.796875 69.828125 27.984375 69.828125 
Q 32.90625 69.828125 37.21875 68.1875 
Q 41.546875 66.546875 44.765625 62.5 
Q 48 58.453125 49.84375 51.640625 
Q 51.703125 44.828125 51.703125 34.421875 
M 42.78125 34.421875 
Q 42.78125 42.625 41.796875 48.0625 
Q 40.828125 53.515625 38.921875 56.765625 
Q 37.015625 60.015625 34.25 61.359375 
Q 31.5 62.703125 27.984375 62.703125 
Q 24.265625 62.703125 21.4375 61.328125 
Q 18.609375 59.96875 16.671875 56.71875 
Q 14.75 53.46875 13.765625 48.015625 
Q 12.796875 42.578125 12.796875 34.421875 
Q 12.796875 26.515625 13.796875 21.09375 
Q 14.796875 15.671875 16.71875 12.375 
Q 18.65625 9.078125 21.4375 7.640625 
Q 24.21875 6.203125 27.78125 6.203125 
Q 31.25 6.203125 34.03125 7.640625 
Q 36.8125 9.078125 38.734375 12.375 
Q 40.671875 15.671875 41.71875 21.09375 
Q 42.78125 26.515625 42.78125 34.421875 
" id="LiberationSans-30"/>
      <path d="M 7.625 0 
L 7.625 7.46875 
L 25.140625 7.46875 
L 25.140625 60.40625 
L 9.625 49.3125 
L 9.625 57.625 
L 25.875 68.796875 
L 33.984375 68.796875 
L 33.984375 7.46875 
L 50.734375 7.46875 
L 50.734375 0 
z
" id="LiberationSans-31"/>
     </defs>
     <g style="fill:#262626;" transform="translate(43.7250452611 272.567775521)scale(0.1 -0.1)">
      <use xlink:href="#LiberationSans-2212"/>
      <use x="58.3984375" xlink:href="#LiberationSans-31"/>
      <use x="114.013671875" xlink:href="#LiberationSans-2e"/>
      <use x="141.796875" xlink:href="#LiberationSans-30"/>
     </g>
    </g>
   </g>
   <g id="xtick_2">
    <g id="line2d_4">
     <path clip-path="url(#p5eafe180db)" d="M 229.232432 154.118919 
" style="fill:none;stroke:#ffffff;stroke-linecap:round;"/>
    </g>
    <g id="line2d_5">
     <path d="M 114.978165 258.82289 
L 111.736553 260.88006 
" style="fill:none;stroke:#262626;stroke-linecap:round;stroke-width:1.75;"/>
    </g>
    <g id="text_2">
     <!-- −0.5 -->
     <defs>
      <path d="M 51.421875 22.40625 
Q 51.421875 17.234375 49.859375 12.9375 
Q 48.296875 8.640625 45.21875 5.53125 
Q 42.140625 2.4375 37.578125 0.71875 
Q 33.015625 -0.984375 27 -0.984375 
Q 21.578125 -0.984375 17.546875 0.28125 
Q 13.53125 1.5625 10.734375 3.78125 
Q 7.953125 6 6.3125 8.984375 
Q 4.6875 11.96875 4 15.375 
L 12.890625 16.40625 
Q 13.421875 14.453125 14.390625 12.625 
Q 15.375 10.796875 17.0625 9.34375 
Q 18.75 7.90625 21.21875 7.046875 
Q 23.6875 6.203125 27.203125 6.203125 
Q 30.609375 6.203125 33.390625 7.25 
Q 36.1875 8.296875 38.15625 10.34375 
Q 40.140625 12.40625 41.203125 15.375 
Q 42.28125 18.359375 42.28125 22.21875 
Q 42.28125 25.390625 41.25 28.046875 
Q 40.234375 30.71875 38.328125 32.640625 
Q 36.421875 34.578125 33.65625 35.640625 
Q 30.90625 36.71875 27.390625 36.71875 
Q 25.203125 36.71875 23.34375 36.328125 
Q 21.484375 35.9375 19.890625 35.25 
Q 18.3125 34.578125 17.015625 33.671875 
Q 15.71875 32.765625 14.59375 31.78125 
L 6 31.78125 
L 8.296875 68.796875 
L 47.40625 68.796875 
L 47.40625 61.328125 
L 16.3125 61.328125 
L 14.984375 39.5 
Q 17.328125 41.3125 20.84375 42.59375 
Q 24.359375 43.890625 29.203125 43.890625 
Q 34.328125 43.890625 38.421875 42.328125 
Q 42.53125 40.765625 45.40625 37.90625 
Q 48.296875 35.0625 49.859375 31.109375 
Q 51.421875 27.15625 51.421875 22.40625 
" id="LiberationSans-35"/>
     </defs>
     <g style="fill:#262626;" transform="translate(94.2764560942 284.524024035)scale(0.1 -0.1)">
      <use xlink:href="#LiberationSans-2212"/>
      <use x="58.3984375" xlink:href="#LiberationSans-30"/>
      <use x="114.013671875" xlink:href="#LiberationSans-2e"/>
      <use x="141.796875" xlink:href="#LiberationSans-35"/>
     </g>
    </g>
   </g>
   <g id="xtick_3">
    <g id="line2d_6">
     <path clip-path="url(#p5eafe180db)" d="M 229.232432 154.118919 
" style="fill:none;stroke:#ffffff;stroke-linecap:round;"/>
    </g>
    <g id="line2d_7">
     <path d="M 166.623915 270.807607 
L 163.444941 272.910166 
" style="fill:none;stroke:#262626;stroke-linecap:round;stroke-width:1.75;"/>
    </g>
    <g id="text_3">
     <!-- 0.0 -->
     <g style="fill:#262626;" transform="translate(148.859301115 296.743071288)scale(0.1 -0.1)">
      <use xlink:href="#LiberationSans-30"/>
      <use x="55.615234375" xlink:href="#LiberationSans-2e"/>
      <use x="83.3984375" xlink:href="#LiberationSans-30"/>
     </g>
    </g>
   </g>
   <g id="xtick_4">
    <g id="line2d_8">
     <path clip-path="url(#p5eafe180db)" d="M 229.232432 154.118919 
" style="fill:none;stroke:#ffffff;stroke-linecap:round;"/>
    </g>
    <g id="line2d_9">
     <path d="M 219.414412 283.057969 
L 216.301669 285.207436 
" style="fill:none;stroke:#262626;stroke-linecap:round;stroke-width:1.75;"/>
    </g>
    <g id="text_4">
     <!-- 0.5 -->
     <g style="fill:#262626;" transform="translate(201.669996141 309.233678049)scale(0.1 -0.1)">
      <use xlink:href="#LiberationSans-30"/>
      <use x="55.615234375" xlink:href="#LiberationSans-2e"/>
      <use x="83.3984375" xlink:href="#LiberationSans-35"/>
     </g>
    </g>
   </g>
   <g id="xtick_5">
    <g id="line2d_10">
     <path clip-path="url(#p5eafe180db)" d="M 229.232432 154.118919 
" style="fill:none;stroke:#ffffff;stroke-linecap:round;"/>
    </g>
    <g id="line2d_11">
     <path d="M 273.388141 295.582908 
L 270.345417 297.78087 
" style="fill:none;stroke:#262626;stroke-linecap:round;stroke-width:1.75;"/>
    </g>
    <g id="text_5">
     <!-- 1.0 -->
     <g style="fill:#262626;" transform="translate(255.6675594 322.004998865)scale(0.1 -0.1)">
      <use xlink:href="#LiberationSans-31"/>
      <use x="55.615234375" xlink:href="#LiberationSans-2e"/>
      <use x="83.3984375" xlink:href="#LiberationSans-30"/>
     </g>
    </g>
   </g>
  </g>
  <g id="axis3d_2">
   <g id="line2d_12">
    <path d="M 393.901687 212.549945 
L 276.929684 297.372411 
" style="fill:none;stroke:#000000;stroke-linecap:round;stroke-width:0.75;"/>
   </g>
   <g id="Line3DCollection_2">
    <path d="M 52.83963 88.987084 
L 61.925947 245.127291 
L 279.454544 295.541504 
" style="fill:none;stroke:#e6e6e6;stroke-width:1.75;"/>
    <path d="M 87.070412 71.276824 
L 94.260112 225.469921 
L 309.127889 274.023823 
" style="fill:none;stroke:#e6e6e6;stroke-width:1.75;"/>
    <path d="M 120.013047 54.233024 
L 125.437937 206.515542 
L 337.692352 253.310249 
" style="fill:none;stroke:#e6e6e6;stroke-width:1.75;"/>
    <path d="M 151.738902 37.818759 
L 155.520363 188.227105 
L 365.208951 233.356536 
" style="fill:none;stroke:#e6e6e6;stroke-width:1.75;"/>
    <path d="M 182.31417 21.999783 
L 184.564121 170.570119 
L 391.734308 214.121624 
" style="fill:none;stroke:#e6e6e6;stroke-width:1.75;"/>
   </g>
   <g id="xtick_6">
    <g id="line2d_13">
     <path clip-path="url(#p5eafe180db)" d="M 229.232432 154.118919 
" style="fill:none;stroke:#ffffff;stroke-linecap:round;"/>
    </g>
    <g id="line2d_14">
     <path d="M 277.633738 295.119516 
L 283.10024 296.386427 
" style="fill:none;stroke:#262626;stroke-linecap:round;stroke-width:1.75;"/>
    </g>
    <g id="text_6">
     <!-- −1.0 -->
     <g style="fill:#262626;" transform="translate(286.554448274 318.25635166)scale(0.1 -0.1)">
      <use xlink:href="#LiberationSans-2212"/>
      <use x="58.3984375" xlink:href="#LiberationSans-31"/>
      <use x="114.013671875" xlink:href="#LiberationSans-2e"/>
      <use x="141.796875" xlink:href="#LiberationSans-30"/>
     </g>
    </g>
   </g>
   <g id="xtick_7">
    <g id="line2d_15">
     <path clip-path="url(#p5eafe180db)" d="M 229.232432 154.118919 
" style="fill:none;stroke:#ffffff;stroke-linecap:round;"/>
    </g>
    <g id="line2d_16">
     <path d="M 307.33087 273.617748 
L 312.725881 274.836865 
" style="fill:none;stroke:#262626;stroke-linecap:round;stroke-width:1.75;"/>
    </g>
    <g id="text_7">
     <!-- −0.5 -->
     <g style="fill:#262626;" transform="translate(315.888982464 296.455809882)scale(0.1 -0.1)">
      <use xlink:href="#LiberationSans-2212"/>
      <use x="58.3984375" xlink:href="#LiberationSans-30"/>
      <use x="114.013671875" xlink:href="#LiberationSans-2e"/>
      <use x="141.796875" xlink:href="#LiberationSans-35"/>
     </g>
    </g>
   </g>
   <g id="xtick_8">
    <g id="line2d_17">
     <path clip-path="url(#p5eafe180db)" d="M 229.232432 154.118919 
" style="fill:none;stroke:#ffffff;stroke-linecap:round;"/>
    </g>
    <g id="line2d_18">
     <path d="M 335.91863 252.919205 
L 341.243626 254.093181 
" style="fill:none;stroke:#262626;stroke-linecap:round;stroke-width:1.75;"/>
    </g>
    <g id="text_8">
     <!-- 0.0 -->
     <g style="fill:#262626;" transform="translate(347.048183742 275.469518756)scale(0.1 -0.1)">
      <use xlink:href="#LiberationSans-30"/>
      <use x="55.615234375" xlink:href="#LiberationSans-2e"/>
      <use x="83.3984375" xlink:href="#LiberationSans-30"/>
     </g>
    </g>
   </g>
   <g id="xtick_9">
    <g id="line2d_19">
     <path clip-path="url(#p5eafe180db)" d="M 229.232432 154.118919 
" style="fill:none;stroke:#ffffff;stroke-linecap:round;"/>
    </g>
    <g id="line2d_20">
     <path d="M 363.458042 232.979703 
L 368.714481 234.111 
" style="fill:none;stroke:#262626;stroke-linecap:round;stroke-width:1.75;"/>
    </g>
    <g id="text_9">
     <!-- 0.5 -->
     <g style="fill:#262626;" transform="translate(374.251685351 255.252696171)scale(0.1 -0.1)">
      <use xlink:href="#LiberationSans-30"/>
      <use x="55.615234375" xlink:href="#LiberationSans-2e"/>
      <use x="83.3984375" xlink:href="#LiberationSans-35"/>
     </g>
    </g>
   </g>
   <g id="xtick_10">
    <g id="line2d_21">
     <path clip-path="url(#p5eafe180db)" d="M 229.232432 154.118919 
" style="fill:none;stroke:#ffffff;stroke-linecap:round;"/>
    </g>
    <g id="line2d_22">
     <path d="M 390.005733 213.758241 
L 395.195055 214.849145 
" style="fill:none;stroke:#262626;stroke-linecap:round;stroke-width:1.75;"/>
    </g>
    <g id="text_10">
     <!-- 1.0 -->
     <g style="fill:#262626;" transform="translate(400.47571881 235.763784798)scale(0.1 -0.1)">
      <use xlink:href="#LiberationSans-31"/>
      <use x="55.615234375" xlink:href="#LiberationSans-2e"/>
      <use x="83.3984375" xlink:href="#LiberationSans-30"/>
     </g>
    </g>
   </g>
  </g>
  <g id="axis3d_3">
   <g id="line2d_23">
    <path d="M 393.901687 212.549945 
L 402.560748 59.655645 
" style="fill:none;stroke:#000000;stroke-linecap:round;stroke-width:0.75;"/>
   </g>
   <g id="Line3DCollection_3">
    <path d="M 394.066381 209.641918 
L 186.89869 166.297241 
L 59.001569 243.8305 
" style="fill:none;stroke:#e6e6e6;stroke-width:1.75;"/>
    <path d="M 395.664368 181.426024 
L 186.505479 138.860869 
L 57.296686 215.023925 
" style="fill:none;stroke:#e6e6e6;stroke-width:1.75;"/>
    <path d="M 397.293643 152.657695 
L 186.104894 110.91004 
L 55.557309 185.63451 
" style="fill:none;stroke:#e6e6e6;stroke-width:1.75;"/>
    <path d="M 398.955131 123.320546 
L 185.696727 82.430147 
L 53.782379 155.644386 
" style="fill:none;stroke:#e6e6e6;stroke-width:1.75;"/>
    <path d="M 400.6498 93.397539 
L 185.28076 53.406026 
L 51.970796 125.034945 
" style="fill:none;stroke:#e6e6e6;stroke-width:1.75;"/>
    <path d="M 402.378652 62.870947 
L 184.856768 23.821927 
L 50.121412 93.786803 
" style="fill:none;stroke:#e6e6e6;stroke-width:1.75;"/>
   </g>
   <g id="xtick_11">
    <g id="line2d_24">
     <path d="M 229.232432 154.118919 
" style="fill:none;stroke:#ffffff;stroke-linecap:round;"/>
    </g>
    <g id="line2d_25">
     <path d="M 392.337863 209.280268 
L 397.527014 210.365969 
" style="fill:none;stroke:#262626;stroke-linecap:round;stroke-width:1.75;"/>
    </g>
    <g id="text_11">
     <!-- 0.0 -->
     <g style="fill:#262626;" transform="translate(411.544127486 214.396289924)scale(0.1 -0.1)">
      <use xlink:href="#LiberationSans-30"/>
      <use x="55.615234375" xlink:href="#LiberationSans-2e"/>
      <use x="83.3984375" xlink:href="#LiberationSans-30"/>
     </g>
    </g>
   </g>
   <g id="xtick_12">
    <g id="line2d_26">
     <path d="M 229.232432 154.118919 
" style="fill:none;stroke:#ffffff;stroke-linecap:round;"/>
    </g>
    <g id="line2d_27">
     <path d="M 393.91854 181.070737 
L 399.159693 182.137344 
" style="fill:none;stroke:#262626;stroke-linecap:round;stroke-width:1.75;"/>
    </g>
    <g id="text_12">
     <!-- 0.2 -->
     <defs>
      <path d="M 5.03125 0 
L 5.03125 6.203125 
Q 7.515625 11.921875 11.109375 16.28125 
Q 14.703125 20.65625 18.65625 24.1875 
Q 22.609375 27.734375 26.484375 30.765625 
Q 30.375 33.796875 33.5 36.8125 
Q 36.625 39.84375 38.546875 43.15625 
Q 40.484375 46.484375 40.484375 50.6875 
Q 40.484375 53.609375 39.59375 55.828125 
Q 38.71875 58.0625 37.0625 59.5625 
Q 35.40625 61.078125 33.078125 61.828125 
Q 30.765625 62.59375 27.9375 62.59375 
Q 25.296875 62.59375 22.96875 61.859375 
Q 20.65625 61.140625 18.84375 59.671875 
Q 17.046875 58.203125 15.890625 56.03125 
Q 14.75 53.859375 14.40625 50.984375 
L 5.421875 51.8125 
Q 5.859375 55.515625 7.46875 58.78125 
Q 9.078125 62.0625 11.90625 64.53125 
Q 14.75 67 18.71875 68.40625 
Q 22.703125 69.828125 27.9375 69.828125 
Q 33.0625 69.828125 37.0625 68.609375 
Q 41.0625 67.390625 43.8125 64.984375 
Q 46.578125 62.59375 48.046875 59.078125 
Q 49.515625 55.5625 49.515625 50.984375 
Q 49.515625 47.515625 48.265625 44.390625 
Q 47.015625 41.265625 44.9375 38.421875 
Q 42.875 35.59375 40.140625 32.953125 
Q 37.40625 30.328125 34.421875 27.8125 
Q 31.453125 25.296875 28.421875 22.828125 
Q 25.390625 20.359375 22.71875 17.859375 
Q 20.0625 15.375 17.96875 12.8125 
Q 15.875 10.25 14.703125 7.46875 
L 50.59375 7.46875 
L 50.59375 0 
z
" id="LiberationSans-32"/>
     </defs>
     <g style="fill:#262626;" transform="translate(413.374508209 186.224293516)scale(0.1 -0.1)">
      <use xlink:href="#LiberationSans-30"/>
      <use x="55.615234375" xlink:href="#LiberationSans-2e"/>
      <use x="83.3984375" xlink:href="#LiberationSans-32"/>
     </g>
    </g>
   </g>
   <g id="xtick_13">
    <g id="line2d_28">
     <path d="M 229.232432 154.118919 
" style="fill:none;stroke:#ffffff;stroke-linecap:round;"/>
    </g>
    <g id="line2d_29">
     <path d="M 395.530154 152.30909 
L 400.82436 153.355645 
" style="fill:none;stroke:#262626;stroke-linecap:round;stroke-width:1.75;"/>
    </g>
    <g id="text_13">
     <!-- 0.4 -->
     <defs>
      <path d="M 43.015625 15.578125 
L 43.015625 0 
L 34.71875 0 
L 34.71875 15.578125 
L 2.296875 15.578125 
L 2.296875 22.40625 
L 33.796875 68.796875 
L 43.015625 68.796875 
L 43.015625 22.515625 
L 52.6875 22.515625 
L 52.6875 15.578125 
z
M 34.71875 58.890625 
Q 34.625 58.640625 34.234375 57.9375 
Q 33.84375 57.234375 33.34375 56.34375 
Q 32.859375 55.46875 32.34375 54.5625 
Q 31.84375 53.65625 31.453125 53.078125 
L 13.8125 27.09375 
Q 13.578125 26.703125 13.109375 26.0625 
Q 12.640625 25.4375 12.15625 24.78125 
Q 11.671875 24.125 11.171875 23.484375 
Q 10.6875 22.859375 10.40625 22.515625 
L 34.71875 22.515625 
z
" id="LiberationSans-34"/>
     </defs>
     <g style="fill:#262626;" transform="translate(415.240638493 157.502063768)scale(0.1 -0.1)">
      <use xlink:href="#LiberationSans-30"/>
      <use x="55.615234375" xlink:href="#LiberationSans-2e"/>
      <use x="83.3984375" xlink:href="#LiberationSans-34"/>
     </g>
    </g>
   </g>
   <g id="xtick_14">
    <g id="line2d_30">
     <path d="M 229.232432 154.118919 
" style="fill:none;stroke:#ffffff;stroke-linecap:round;"/>
    </g>
    <g id="line2d_31">
     <path d="M 397.173622 122.978958 
L 402.521965 124.004455 
" style="fill:none;stroke:#262626;stroke-linecap:round;stroke-width:1.75;"/>
    </g>
    <g id="text_14">
     <!-- 0.6 -->
     <defs>
      <path d="M 51.21875 22.515625 
Q 51.21875 17.328125 49.78125 13 
Q 48.34375 8.6875 45.53125 5.578125 
Q 42.71875 2.484375 38.5625 0.75 
Q 34.421875 -0.984375 29 -0.984375 
Q 23 -0.984375 18.5 1.3125 
Q 14.015625 3.609375 11.03125 7.921875 
Q 8.0625 12.25 6.5625 18.53125 
Q 5.078125 24.8125 5.078125 32.8125 
Q 5.078125 42 6.765625 48.921875 
Q 8.453125 55.859375 11.625 60.5 
Q 14.796875 65.140625 19.359375 67.484375 
Q 23.921875 69.828125 29.6875 69.828125 
Q 33.203125 69.828125 36.28125 69.09375 
Q 39.359375 68.359375 41.875 66.71875 
Q 44.390625 65.09375 46.28125 62.40625 
Q 48.1875 59.71875 49.3125 55.8125 
L 40.921875 54.296875 
Q 39.546875 58.734375 36.546875 60.71875 
Q 33.546875 62.703125 29.59375 62.703125 
Q 25.984375 62.703125 23.046875 60.984375 
Q 20.125 59.28125 18.0625 55.875 
Q 16.015625 52.484375 14.90625 47.359375 
Q 13.8125 42.234375 13.8125 35.40625 
Q 16.21875 39.84375 20.5625 42.15625 
Q 24.90625 44.484375 30.515625 44.484375 
Q 35.203125 44.484375 39.015625 42.96875 
Q 42.828125 41.453125 45.53125 38.59375 
Q 48.25 35.75 49.734375 31.671875 
Q 51.21875 27.59375 51.21875 22.515625 
M 42.28125 22.125 
Q 42.28125 25.6875 41.40625 28.5625 
Q 40.53125 31.453125 38.765625 33.46875 
Q 37.015625 35.5 34.421875 36.59375 
Q 31.84375 37.703125 28.421875 37.703125 
Q 26.03125 37.703125 23.578125 36.984375 
Q 21.140625 36.28125 19.15625 34.6875 
Q 17.1875 33.109375 15.9375 30.515625 
Q 14.703125 27.9375 14.703125 24.21875 
Q 14.703125 20.40625 15.671875 17.109375 
Q 16.65625 13.8125 18.484375 11.375 
Q 20.3125 8.9375 22.890625 7.515625 
Q 25.484375 6.109375 28.71875 6.109375 
Q 31.890625 6.109375 34.40625 7.203125 
Q 36.921875 8.296875 38.671875 10.375 
Q 40.4375 12.453125 41.359375 15.421875 
Q 42.28125 18.40625 42.28125 22.125 
" id="LiberationSans-36"/>
     </defs>
     <g style="fill:#262626;" transform="translate(417.143576015 128.213321614)scale(0.1 -0.1)">
      <use xlink:href="#LiberationSans-30"/>
      <use x="55.615234375" xlink:href="#LiberationSans-2e"/>
      <use x="83.3984375" xlink:href="#LiberationSans-36"/>
     </g>
    </g>
   </g>
   <g id="xtick_15">
    <g id="line2d_32">
     <path d="M 229.232432 154.118919 
" style="fill:none;stroke:#ffffff;stroke-linecap:round;"/>
    </g>
    <g id="line2d_33">
     <path d="M 398.849899 93.063319 
L 404.253496 94.066703 
" style="fill:none;stroke:#262626;stroke-linecap:round;stroke-width:1.75;"/>
    </g>
    <g id="text_15">
     <!-- 0.8 -->
     <defs>
      <path d="M 51.265625 19.1875 
Q 51.265625 14.796875 49.875 11.109375 
Q 48.484375 7.421875 45.625 4.734375 
Q 42.78125 2.046875 38.328125 0.53125 
Q 33.890625 -0.984375 27.828125 -0.984375 
Q 21.78125 -0.984375 17.359375 0.53125 
Q 12.9375 2.046875 10.03125 4.703125 
Q 7.125 7.375 5.734375 11.0625 
Q 4.34375 14.75 4.34375 19.09375 
Q 4.34375 22.859375 5.484375 25.78125 
Q 6.640625 28.71875 8.5625 30.828125 
Q 10.5 32.953125 12.96875 34.25 
Q 15.4375 35.546875 18.0625 35.984375 
L 18.0625 36.1875 
Q 15.1875 36.859375 12.90625 38.375 
Q 10.640625 39.890625 9.09375 42.015625 
Q 7.5625 44.140625 6.75 46.71875 
Q 5.953125 49.3125 5.953125 52.203125 
Q 5.953125 55.8125 7.34375 59 
Q 8.734375 62.203125 11.46875 64.625 
Q 14.203125 67.046875 18.25 68.4375 
Q 22.3125 69.828125 27.640625 69.828125 
Q 33.25 69.828125 37.375 68.40625 
Q 41.5 67 44.203125 64.578125 
Q 46.921875 62.15625 48.234375 58.9375 
Q 49.5625 55.71875 49.5625 52.09375 
Q 49.5625 49.265625 48.75 46.671875 
Q 47.953125 44.09375 46.40625 41.96875 
Q 44.875 39.84375 42.59375 38.34375 
Q 40.328125 36.859375 37.359375 36.28125 
L 37.359375 36.078125 
Q 40.328125 35.59375 42.859375 34.296875 
Q 45.40625 33.015625 47.265625 30.890625 
Q 49.125 28.765625 50.1875 25.828125 
Q 51.265625 22.90625 51.265625 19.1875 
M 40.4375 51.609375 
Q 40.4375 54.203125 39.765625 56.34375 
Q 39.109375 58.5 37.59375 60.03125 
Q 36.078125 61.578125 33.640625 62.421875 
Q 31.203125 63.28125 27.640625 63.28125 
Q 24.171875 63.28125 21.78125 62.421875 
Q 19.390625 61.578125 17.84375 60.03125 
Q 16.3125 58.5 15.625 56.34375 
Q 14.9375 54.203125 14.9375 51.609375 
Q 14.9375 49.5625 15.46875 47.40625 
Q 16.015625 45.265625 17.421875 43.5 
Q 18.84375 41.75 21.328125 40.625 
Q 23.828125 39.5 27.734375 39.5 
Q 31.890625 39.5 34.40625 40.625 
Q 36.921875 41.75 38.25 43.5 
Q 39.59375 45.265625 40.015625 47.40625 
Q 40.4375 49.5625 40.4375 51.609375 
M 42.140625 20.015625 
Q 42.140625 22.515625 41.453125 24.828125 
Q 40.765625 27.15625 39.109375 28.9375 
Q 37.453125 30.71875 34.640625 31.8125 
Q 31.84375 32.90625 27.640625 32.90625 
Q 23.78125 32.90625 21.0625 31.8125 
Q 18.359375 30.71875 16.671875 28.90625 
Q 14.984375 27.09375 14.203125 24.71875 
Q 13.421875 22.359375 13.421875 19.828125 
Q 13.421875 16.65625 14.203125 14.03125 
Q 14.984375 11.421875 16.6875 9.546875 
Q 18.40625 7.671875 21.1875 6.640625 
Q 23.96875 5.609375 27.9375 5.609375 
Q 31.9375 5.609375 34.671875 6.640625 
Q 37.40625 7.671875 39.0625 9.546875 
Q 40.71875 11.421875 41.421875 14.078125 
Q 42.140625 16.75 42.140625 20.015625 
" id="LiberationSans-38"/>
     </defs>
     <g style="fill:#262626;" transform="translate(419.084420592 98.3411394244)scale(0.1 -0.1)">
      <use xlink:href="#LiberationSans-30"/>
      <use x="55.615234375" xlink:href="#LiberationSans-2e"/>
      <use x="83.3984375" xlink:href="#LiberationSans-38"/>
     </g>
    </g>
   </g>
   <g id="xtick_16">
    <g id="line2d_34">
     <path d="M 229.232432 154.118919 
" style="fill:none;stroke:#ffffff;stroke-linecap:round;"/>
    </g>
    <g id="line2d_35">
     <path d="M 400.559975 62.544463 
L 406.01998 63.52463 
" style="fill:none;stroke:#262626;stroke-linecap:round;stroke-width:1.75;"/>
    </g>
    <g id="text_16">
     <!-- 1.0 -->
     <g style="fill:#262626;" transform="translate(421.064316296 67.8679083755)scale(0.1 -0.1)">
      <use xlink:href="#LiberationSans-31"/>
      <use x="55.615234375" xlink:href="#LiberationSans-2e"/>
      <use x="83.3984375" xlink:href="#LiberationSans-30"/>
     </g>
    </g>
   </g>
  </g>
  <g id="axes_1">
   <g id="line2d_36">
    <path clip-path="url(#p5eafe180db)" d="M 333.368438 249.355841 
L 336.69205 246.486434 
L 339.569067 243.548835 
L 341.990752 240.554573 
L 343.950473 237.515251 
L 345.443674 234.442489 
L 346.467841 231.347871 
L 347.022447 228.242886 
L 347.108905 225.138884 
L 346.730493 222.04703 
L 345.892291 218.978259 
L 344.601099 215.943238 
L 342.865359 212.952335 
L 340.695067 210.015584 
L 338.101693 207.142658 
L 335.098086 204.342846 
L 331.698392 201.62503 
L 327.917964 198.997668 
L 323.773275 196.468779 
L 319.281835 194.04593 
L 314.462107 191.736225 
L 309.333426 189.546298 
L 303.915923 187.482304 
L 298.23045 185.549918 
L 292.298506 183.75433 
L 286.142172 182.100239 
L 279.784043 180.591861 
L 273.247163 179.232917 
L 266.554969 178.026642 
L 259.731234 176.975781 
L 252.800005 176.082594 
L 245.785557 175.348849 
L 238.712337 174.775833 
L 231.604915 174.364345 
L 224.487935 174.1147 
L 217.386064 174.026731 
L 210.323946 174.099785 
L 203.326149 174.33273 
L 196.417119 174.723949 
L 189.621129 175.271341 
L 182.962223 175.972325 
L 176.464164 176.823837 
L 170.150383 177.822331 
L 164.04391 178.963777 
L 158.167322 180.243667 
L 152.542677 181.657013 
L 147.191445 183.198352 
L 142.134437 184.861744 
L 137.391737 186.640783 
L 132.982623 188.528601 
L 128.925486 190.517873 
L 125.237751 192.600831 
L 121.935791 194.769271 
L 119.034844 197.014571 
L 116.548918 199.327706 
L 114.490711 201.699265 
L 112.871514 204.11948 
L 111.701128 206.578244 
L 110.98777 209.065146 
L 110.737995 211.569498 
L 110.956609 214.080378 
L 111.646593 216.58666 
L 112.809032 219.077066 
L 114.44305 221.540207 
L 116.54575 223.964636 
L 119.112171 226.338898 
L 122.135247 228.651587 
L 125.605785 230.891405 
L 129.512451 233.047223 
L 133.841773 235.108141 
L 138.578155 237.063554 
L 143.703911 238.903213 
L 149.199316 240.617293 
L 155.042664 242.196453 
L 161.210357 243.6319 
L 167.676999 244.915449 
L 174.415514 246.039579 
L 181.397272 246.997487 
L 188.59224 247.783139 
L 195.969137 248.391313 
L 203.49561 248.81764 
L 211.138412 249.058635 
L 218.863601 249.111726 
L 226.636734 248.975273 
L 234.423073 248.648581 
L 242.187797 248.131904 
L 249.896208 247.426447 
L 257.513937 246.534351 
L 265.007153 245.458683 
L 272.342757 244.203406 
L 279.488577 242.773353 
L 286.413547 241.174188 
L 293.087876 239.412365 
L 299.483209 237.49508 
L 305.572767 235.430219 
L 311.331475 233.226302 
L 316.736077 230.892424 
L 321.765229 228.438191 
L 326.399577 225.873661 
L 330.621824 223.209279 
L 334.41677 220.455806 
L 337.771345 217.624265 
L 340.674622 214.725868 
L 343.117817 211.77196 
L 345.094273 208.773957 
L 346.599433 205.743289 
L 347.630804 202.691345 
L 348.187904 199.629422 
L 348.272205 196.568673 
L 347.887069 193.520069 
L 347.03767 190.494351 
L 345.730922 187.501997 
L 343.975394 184.553185 
L 341.78122 181.657764 
L 339.160018 178.825225 
L 336.124799 176.064682 
L 332.689875 173.384845 
L 328.870774 170.794007 
L 324.68415 168.300029 
L 320.147698 165.910326 
L 315.28007 163.631857 
L 310.100796 161.471119 
L 304.630202 159.434141 
L 298.889337 157.526476 
L 292.899899 155.753202 
L 286.68417 154.118919 
L 280.264944 152.627746 
L 273.665467 151.283324 
L 266.909378 150.088814 
L 260.02065 149.046896 
L 253.023531 148.159776 
L 245.942498 147.42918 
L 238.802198 146.856361 
L 231.627403 146.442093 
L 224.442958 146.186681 
L 217.27373 146.089953 
L 210.144564 146.151266 
L 203.080232 146.369504 
L 196.10538 146.74308 
L 189.244483 147.269932 
L 182.521788 147.947528 
L 175.961262 148.772863 
L 169.586536 149.74246 
L 163.420845 150.852369 
L 157.486971 152.098172 
L 151.807171 153.474979 
L 146.403117 154.977433 
L 141.295822 156.599715 
L 136.505569 158.335544 
L 132.05183 160.178186 
L 127.95319 162.120459 
L 124.227263 164.154747 
L 120.890606 166.273004 
L 117.958633 168.466772 
L 115.445524 170.727199 
L 113.364139 173.045053 
L 111.72592 175.410747 
L 110.54081 177.814364 
L 109.817154 180.245682 
L 109.561622 182.694211 
L 109.779118 185.149224 
L 110.472705 187.599798 
L 111.643531 190.034853 
L 113.29076 192.443202 
L 115.411518 194.813598 
L 118.000842 197.134784 
L 121.051639 199.39555 
L 124.554665 201.584792 
L 128.498509 203.691568 
L 132.869593 205.705161 
L 137.652191 207.615143 
L 142.828458 209.411437 
L 148.378481 211.084378 
L 154.280343 212.624781 
L 160.510205 214.023995 
L 167.042407 215.27397 
L 173.849583 216.367308 
L 180.902792 217.297317 
L 188.171668 218.058063 
L 195.624581 218.644411 
L 203.228809 219.052064 
L 210.950727 219.277599 
L 218.756002 219.318488 
L 226.609791 219.173123 
L 234.476955 218.840827 
L 242.322268 218.321858 
L 250.110628 217.617407 
L 257.80727 216.729591 
L 265.377972 215.661434 
L 272.789258 214.416847 
L 280.008589 213.000593 
L 287.00455 211.418254 
L 293.747021 209.67619 
L 300.207337 207.781489 
L 306.358432 205.741917 
L 312.174969 203.565862 
L 317.633455 201.262277 
L 322.712334 198.840619 
L 327.392071 196.310783 
L 331.65521 193.683042 
L 335.486424 190.967985 
L 338.87254 188.176446 
L 341.802557 185.319451 
L 344.267641 182.40815 
L 346.261111 179.453759 
L 347.778412 176.467509 
L 348.817072 173.460584 
L 349.376655 170.444075 
L 349.458696 167.428933 
L 349.06664 164.425922 
L 348.205763 161.445582 
L 346.883094 158.498188 
L 345.107329 155.593722 
L 342.888749 152.741837 
L 340.239122 149.951837 
L 337.171622 147.232648 
L 333.700734 144.592803 
L 329.842163 142.040423 
L 325.612748 139.583202 
L 321.030373 137.228397 
L 316.113886 134.982817 
L 310.883011 132.852815 
L 305.358276 130.844287 
L 299.560929 128.962661 
L 293.512872 127.2129 
L 287.23659 125.599496 
L 280.755082 124.126473 
L 274.091798 122.797384 
L 267.270582 121.615313 
L 260.315611 120.582876 
L 253.251338 119.702221 
L 246.102443 118.97503 
L 238.893779 118.402519 
L 231.650322 117.98544 
L 224.397119 117.724084 
L 217.159245 117.618277 
L 209.961747 117.667383 
L 202.829602 117.870306 
L 195.787662 118.225487 
L 188.860606 118.730906 
L 182.072888 119.384082 
L 175.448681 120.18207 
L 169.011823 121.121467 
L 162.785756 122.198405 
L 156.793466 123.408558 
L 151.057419 124.74714 
L 145.599492 126.208906 
L 140.440902 127.788159 
L 135.602133 129.47875 
L 131.102859 131.274085 
L 126.961861 133.167133 
L 123.196945 135.150433 
L 119.824857 137.216106 
L 116.861193 139.355867 
L 114.320308 141.561043 
L 112.215225 143.822589 
L 110.557545 146.131109 
L 109.357353 148.476882 
L 108.623129 150.84989 
L 108.361658 153.239846 
L 108.577947 155.636232 
L 109.275143 158.028334 
L 110.454457 160.405283 
L 112.115101 162.756105 
L 114.254221 165.069762 
L 116.866853 167.335207 
L 119.945879 169.541438 
L 123.482003 171.677553 
L 127.463735 173.732809 
L 131.877393 175.696685 
L 136.707115 177.558939 
L 141.934897 179.309673 
L 147.540635 180.939396 
L 153.502193 182.439085 
L 159.79549 183.800243 
L 166.394595 185.01496 
L 173.271844 186.075971 
L 180.397982 186.976702 
L 187.7423 187.711324 
L 195.272811 188.274794 
L 202.956418 188.662894 
L 210.759108 188.872263 
L 218.646146 188.900424 
L 226.582283 188.745803 
L 234.531967 188.407739 
L 242.459559 187.886493 
L 250.329545 187.183246 
L 258.106752 186.300086 
L 265.75656 185.239994 
L 273.245105 184.006821 
L 280.539474 182.60526 
L 287.607897 181.040804 
L 294.419916 179.319712 
L 300.946549 177.448957 
L 307.160437 175.436179 
L 313.035976 173.289626 
L 318.549429 171.018101 
L 323.679028 168.630898 
L 328.405049 166.137743 
L 332.709878 163.54873 
L 336.578056 160.874259 
L 339.996308 158.12497 
L 342.953557 155.311688 
L 345.440919 152.445359 
L 347.451691 149.53699 
L 348.981318 146.597597 
L 350.027352 143.638151 
L 350.589404 140.669528 
L 350.669076 137.702463 
L 350.269899 134.747505 
L 349.397252 131.81498 
L 348.058283 128.914953 
L 346.261821 126.057197 
L 344.018291 123.251164 
L 341.339621 120.505957 
L 338.239151 117.83031 
L 334.731541 115.232569 
L 330.832678 112.720674 
L 326.55959 110.302146 
L 321.930356 107.984076 
L 316.964019 105.773116 
L 311.680507 103.675472 
L 306.100548 101.696898 
L 300.245597 99.842693 
L 294.137763 98.117699 
L 287.799738 96.526298 
L 281.254727 95.072413 
L 274.526391 93.759506 
L 267.638779 92.590583 
L 260.616278 91.568191 
L 253.483549 90.694418 
L 246.26548 89.9709 
L 238.98713 89.398817 
L 231.673683 88.978896 
L 224.350395 88.711413 
L 217.042547 88.596192 
L 209.775394 88.632605 
L 202.574121 88.819576 
L 195.463789 89.155577 
L 188.469287 89.638629 
L 181.615276 90.266305 
L 174.92614 91.035724 
L 168.425927 91.943558 
L 162.138289 92.986024 
L 156.086424 94.158893 
L 150.293005 95.457486 
L 144.78012 96.876676 
L 139.569195 98.410891 
L 134.680919 100.054121 
L 130.135171 101.799919 
L 125.950933 103.641409 
L 122.146208 105.571294 
L 118.737934 107.581869 
L 115.741891 109.665029 
L 113.172615 111.812289 
L 111.043298 114.014799 
L 109.365702 116.263364 
L 108.150059 118.548469 
L 107.404985 120.860308 
L 107.137386 123.188809 
L 107.352374 125.523671 
L 108.053182 127.854402 
L 109.24109 130.170357 
L 110.915355 132.460781 
L 113.073148 134.71486 
L 115.709504 136.921768 
L 118.81728 139.07072 
L 122.387129 141.151032 
L 126.407481 143.152169 
L 130.864547 145.063815 
L 135.742331 146.875927 
L 141.022661 148.578799 
L 146.685242 150.16312 
L 152.707717 151.62004 
L 159.065753 152.941226 
L 165.733144 154.118919 
L 172.681925 155.14599 
L 179.882514 156.015994 
L 187.303858 156.723213 
L 194.9136 157.262702 
L 202.678261 157.630325 
L 210.563429 157.82279 
L 218.533961 157.837672 
L 226.554191 157.673431 
L 234.588146 157.329428 
L 242.599761 156.805926 
L 250.553101 156.104092 
L 258.412578 155.225985 
L 266.143162 154.17454 
L 273.710594 152.953547 
L 281.081579 151.567619 
L 288.22398 150.022159 
L 295.106996 148.323316 
L 301.70132 146.477942 
L 307.979296 144.493542 
L 313.915045 142.378216 
L 319.484584 140.140608 
L 324.665925 137.78984 
L 329.439153 135.335457 
L 333.786493 132.787363 
L 337.692352 130.15576 
L 341.143352 127.451082 
L 344.128337 124.683944 
L 346.638377 121.865071 
L 348.666744 119.005253 
L 350.208885 116.11528 
L 351.26238 113.205898 
L 351.826886 110.287756 
L 351.904076 107.371362 
L 351.497568 104.467038 
L 350.612848 101.584887 
L 349.257186 98.734753 
L 347.439549 95.92619 
L 345.17051 93.168437 
L 342.46216 90.47039 
L 339.328008 87.840579 
L 335.782893 85.287156 
L 331.842891 82.817872 
L 327.525221 80.440066 
L 322.848161 78.160657 
L 317.830954 75.986134 
L 312.493735 73.922546 
L 306.857437 71.975503 
L 300.943727 70.150168 
L 294.774923 68.451257 
L 288.373927 66.883037 
L 281.764157 65.449326 
L 274.969485 64.153494 
L 268.014174 62.998462 
L 260.922819 61.986705 
L 253.720294 61.120253 
L 246.431698 60.400691 
L 239.082303 59.829162 
L 231.697501 59.406366 
L 224.302759 59.132566 
L 216.92357 59.007581 
L 209.585401 59.030795 
L 202.313648 59.201149 
L 195.133583 59.517148 
L 188.070307 59.976857 
L 181.148696 60.577904 
L 174.393346 61.317475 
L 167.828519 62.192318 
L 161.478081 63.198741 
L 155.365443 64.332616 
L 149.513495 65.589373 
L 143.944535 66.964009 
L 138.680203 68.451084 
L 133.741398 70.044731 
L 129.148208 71.738655 
L 124.91982 73.526143 
L 121.074438 75.400071 
L 117.629197 77.352913 
L 114.600067 79.376754 
L 112.001765 81.463305 
L 109.84766 83.603919 
L 108.149676 85.789613 
L 106.918199 88.011089 
L 106.161983 90.258761 
L 105.888059 92.522782 
L 106.101647 94.793084 
L 106.806069 97.059403 
L 108.002677 99.311329 
L 109.690774 101.538343 
L 111.867559 103.729865 
L 114.528066 105.8753 
L 117.665128 107.964096 
L 121.269347 109.985793 
L 125.329072 111.93008 
L 129.830406 113.786859 
L 134.757214 115.546294 
L 140.091159 117.198883 
L 145.811746 118.735508 
L 151.896394 120.147503 
L 158.320515 121.426704 
L 165.057619 122.565515 
L 172.079436 123.556954 
L 179.356049 124.394708 
L 186.85605 125.07318 
L 194.546708 125.587528 
L 202.394151 125.933706 
L 210.36356 126.108492 
L 218.419374 126.109515 
L 226.525498 125.935276 
L 234.645528 125.585155 
L 242.742966 125.05942 
L 250.781446 124.359222 
L 258.724951 123.486588 
L 266.538036 122.444406 
L 274.186034 121.236398 
L 281.635261 119.867095 
L 288.853206 118.341801 
L 295.808713 116.666551 
L 302.472148 114.848069 
L 308.815548 112.893715 
L 314.812753 110.811432 
L 320.439529 108.609694 
L 325.673664 106.297443 
L 330.49505 103.884032 
L 334.885746 101.379163 
L 334.885746 101.379163 
" style="fill:none;stroke:#4c72b0;stroke-linecap:round;stroke-width:1.75;"/>
   </g>
   <g id="legend_1">
    <g id="line2d_37">
     <path d="M 391.065625 12.746875 
L 411.065625 12.746875 
" style="fill:none;stroke:#4c72b0;stroke-linecap:round;stroke-width:1.75;"/>
    </g>
    <g id="line2d_38"/>
    <g id="text_17">
     <!-- wire -->
     <defs>
      <path d="M 57.328125 0 
L 47.125 0 
L 38.671875 34.078125 
Q 38.28125 35.40625 37.859375 37.359375 
Q 37.453125 39.3125 37.0625 41.15625 
Q 36.578125 43.3125 36.140625 45.609375 
Q 35.6875 43.40625 35.203125 41.265625 
Q 34.8125 39.40625 34.34375 37.40625 
Q 33.890625 35.40625 33.5 33.890625 
L 24.8125 0 
L 14.65625 0 
L -0.140625 52.828125 
L 8.546875 52.828125 
L 17.484375 16.9375 
Q 17.828125 15.828125 18.15625 14.1875 
Q 18.5 12.546875 18.84375 10.984375 
Q 19.1875 9.1875 19.578125 7.28125 
Q 19.96875 9.125 20.40625 10.890625 
Q 20.796875 12.40625 21.1875 13.96875 
Q 21.578125 15.53125 21.875 16.546875 
L 31.453125 52.828125 
L 40.875 52.828125 
L 50.09375 16.546875 
Q 50.4375 15.28125 50.828125 13.671875 
Q 51.21875 12.0625 51.5625 10.640625 
Q 51.953125 8.984375 52.34375 7.28125 
Q 52.734375 9.125 53.125 10.890625 
Q 53.46875 12.40625 53.828125 14.03125 
Q 54.203125 15.671875 54.546875 16.9375 
L 63.875 52.828125 
L 72.46875 52.828125 
z
" id="LiberationSans-77"/>
      <path d="M 6.6875 64.0625 
L 6.6875 72.46875 
L 15.484375 72.46875 
L 15.484375 64.0625 
z
M 6.6875 0 
L 6.6875 52.828125 
L 15.484375 52.828125 
L 15.484375 0 
z
" id="LiberationSans-69"/>
      <path d="M 13.484375 24.5625 
Q 13.484375 20.40625 14.328125 16.90625 
Q 15.1875 13.421875 16.96875 10.90625 
Q 18.75 8.40625 21.53125 7 
Q 24.3125 5.609375 28.21875 5.609375 
Q 33.9375 5.609375 37.375 7.90625 
Q 40.828125 10.203125 42.046875 13.71875 
L 49.75 11.53125 
Q 48.921875 9.328125 47.4375 7.109375 
Q 45.953125 4.890625 43.453125 3.09375 
Q 40.96875 1.3125 37.234375 0.15625 
Q 33.5 -0.984375 28.21875 -0.984375 
Q 16.5 -0.984375 10.375 6 
Q 4.25 12.984375 4.25 26.765625 
Q 4.25 34.1875 6.09375 39.328125 
Q 7.953125 44.484375 11.171875 47.703125 
Q 14.40625 50.921875 18.703125 52.359375 
Q 23 53.8125 27.875 53.8125 
Q 34.515625 53.8125 38.984375 51.65625 
Q 43.453125 49.515625 46.15625 45.71875 
Q 48.875 41.9375 50.015625 36.8125 
Q 51.171875 31.6875 51.171875 25.734375 
L 51.171875 24.5625 
z
M 42.09375 31.296875 
Q 41.359375 39.65625 37.84375 43.484375 
Q 34.328125 47.3125 27.734375 47.3125 
Q 25.53125 47.3125 23.109375 46.609375 
Q 20.703125 45.90625 18.65625 44.09375 
Q 16.609375 42.28125 15.1875 39.171875 
Q 13.765625 36.078125 13.578125 31.296875 
z
" id="LiberationSans-65"/>
      <path d="M 6.9375 0 
L 6.9375 40.53125 
Q 6.9375 42.1875 6.90625 43.921875 
Q 6.890625 45.65625 6.828125 47.265625 
Q 6.78125 48.875 6.734375 50.28125 
Q 6.6875 51.703125 6.640625 52.828125 
L 14.9375 52.828125 
Q 14.984375 51.703125 15.0625 50.265625 
Q 15.140625 48.828125 15.203125 47.3125 
Q 15.28125 45.796875 15.296875 44.40625 
Q 15.328125 43.015625 15.328125 42.046875 
L 15.53125 42.046875 
Q 16.453125 45.0625 17.5 47.28125 
Q 18.5625 49.515625 19.96875 50.953125 
Q 21.390625 52.390625 23.34375 53.09375 
Q 25.296875 53.8125 28.078125 53.8125 
Q 29.15625 53.8125 30.125 53.640625 
Q 31.109375 53.46875 31.640625 53.328125 
L 31.640625 45.265625 
Q 30.765625 45.515625 29.59375 45.625 
Q 28.421875 45.75 26.953125 45.75 
Q 23.921875 45.75 21.796875 44.375 
Q 19.671875 43.015625 18.328125 40.59375 
Q 17 38.1875 16.359375 34.84375 
Q 15.71875 31.5 15.71875 27.546875 
L 15.71875 0 
z
" id="LiberationSans-72"/>
     </defs>
     <g style="fill:#262626;" transform="translate(419.065625 16.246875)scale(0.1 -0.1)">
      <use xlink:href="#LiberationSans-77"/>
      <use x="72.216796875" xlink:href="#LiberationSans-69"/>
      <use x="94.43359375" xlink:href="#LiberationSans-72"/>
      <use x="127.734375" xlink:href="#LiberationSans-65"/>
     </g>
    </g>
   </g>
  </g>
 </g>
 <defs>
  <clipPath id="p5eafe180db">
   <rect height="316.8" width="446.4" x="0.0" y="0.0"/>
  </clipPath>
 </defs>
</svg>
