<?xml version="1.0" encoding="utf-8" standalone="no"?>
<!DOCTYPE svg PUBLIC "-//W3C//DTD SVG 1.1//EN"
  "http://www.w3.org/Graphics/SVG/1.1/DTD/svg11.dtd">
<!-- Created with matplotlib (http://matplotlib.org/) -->
<svg height="345pt" version="1.1" viewBox="0 0 446 345" width="446pt" xmlns="http://www.w3.org/2000/svg" xmlns:xlink="http://www.w3.org/1999/xlink">
 <defs>
  <style type="text/css">
*{stroke-linecap:butt;stroke-linejoin:round;stroke-miterlimit:100000;}
  </style>
 </defs>
 <g id="figure_1">
  <g id="patch_1">
   <path d="M 0 345.6 
L 446.4 345.6 
L 446.4 0 
L 0 0 
L 0 345.6 
z
" style="fill:none;"/>
  </g>
  <g id="patch_2">
   <path d="M 0 345.6 
L 446.4 345.6 
L 446.4 -0 
L 0 -0 
L 0 345.6 
z
" style="fill:none;"/>
  </g>
  <g id="pane3d_1">
   <g id="patch_3">
    <path d="M 59.177218 269.23458 
L 186.939234 184.501291 
L 184.812132 22.589882 
L 49.926546 98.721 
" style="fill:#f2f2f2;opacity:0.5;stroke:#f2f2f2;stroke-linejoin:miter;"/>
   </g>
  </g>
  <g id="pane3d_2">
   <g id="patch_4">
    <path d="M 186.939234 184.501291 
L 393.901687 231.872667 
L 402.560748 65.078886 
L 184.812132 22.589882 
" style="fill:#e6e6e6;opacity:0.5;stroke:#e6e6e6;stroke-linejoin:miter;"/>
   </g>
  </g>
  <g id="pane3d_3">
   <g id="patch_5">
    <path d="M 59.177218 269.23458 
L 276.929684 324.406266 
L 393.901687 231.872667 
L 186.939234 184.501291 
" style="fill:#ececec;opacity:0.5;stroke:#ececec;stroke-linejoin:miter;"/>
   </g>
  </g>
  <g id="axis3d_1">
   <g id="line2d_1">
    <path d="M 59.177218 269.23458 
L 276.929684 324.406266 
" style="fill:none;stroke:#000000;stroke-linecap:square;stroke-width:0.75;"/>
   </g>
   <g id="Line3DCollection_1">
    <path d="M 63.341407 270.289655 
L 190.91012 185.410182 
L 188.98105 23.403357 
" style="fill:none;stroke:#e6e6e6;"/>
    <path d="M 96.925005 278.798692 
L 222.916126 192.735996 
L 222.595943 29.962588 
" style="fill:none;stroke:#e6e6e6;"/>
    <path d="M 130.996171 287.431263 
L 255.352943 200.160419 
L 256.6864 36.614614 
" style="fill:none;stroke:#e6e6e6;"/>
    <path d="M 165.565599 296.190079 
L 288.229327 207.685453 
L 291.262586 43.36142 
" style="fill:none;stroke:#e6e6e6;"/>
    <path d="M 200.644301 305.077928 
L 321.554274 215.313158 
L 326.334956 50.205046 
" style="fill:none;stroke:#e6e6e6;"/>
    <path d="M 236.243613 314.097684 
L 355.337028 223.045651 
L 361.914269 57.147591 
" style="fill:none;stroke:#e6e6e6;"/>
    <path d="M 272.375213 323.252305 
L 389.587089 230.885104 
L 398.011596 64.191216 
" style="fill:none;stroke:#e6e6e6;"/>
   </g>
   <g id="xtick_1">
    <g id="line2d_2">
     <path d="M 64.440324 269.558477 
L 61.139482 271.754734 
" style="fill:none;stroke:#000000;stroke-linecap:square;"/>
    </g>
    <g id="text_1">
     <!-- −0.6 -->
     <defs>
      <path d="M 33.015625 40.375 
Q 26.375 40.375 22.484375 35.828125 
Q 18.609375 31.296875 18.609375 23.390625 
Q 18.609375 15.53125 22.484375 10.953125 
Q 26.375 6.390625 33.015625 6.390625 
Q 39.65625 6.390625 43.53125 10.953125 
Q 47.40625 15.53125 47.40625 23.390625 
Q 47.40625 31.296875 43.53125 35.828125 
Q 39.65625 40.375 33.015625 40.375 
M 52.59375 71.296875 
L 52.59375 62.3125 
Q 48.875 64.0625 45.09375 64.984375 
Q 41.3125 65.921875 37.59375 65.921875 
Q 27.828125 65.921875 22.671875 59.328125 
Q 17.53125 52.734375 16.796875 39.40625 
Q 19.671875 43.65625 24.015625 45.921875 
Q 28.375 48.1875 33.59375 48.1875 
Q 44.578125 48.1875 50.953125 41.515625 
Q 57.328125 34.859375 57.328125 23.390625 
Q 57.328125 12.15625 50.6875 5.359375 
Q 44.046875 -1.421875 33.015625 -1.421875 
Q 20.359375 -1.421875 13.671875 8.265625 
Q 6.984375 17.96875 6.984375 36.375 
Q 6.984375 53.65625 15.1875 63.9375 
Q 23.390625 74.21875 37.203125 74.21875 
Q 40.921875 74.21875 44.703125 73.484375 
Q 48.484375 72.75 52.59375 71.296875 
" id="BitstreamVeraSans-Roman-36"/>
      <path d="M 31.78125 66.40625 
Q 24.171875 66.40625 20.328125 58.90625 
Q 16.5 51.421875 16.5 36.375 
Q 16.5 21.390625 20.328125 13.890625 
Q 24.171875 6.390625 31.78125 6.390625 
Q 39.453125 6.390625 43.28125 13.890625 
Q 47.125 21.390625 47.125 36.375 
Q 47.125 51.421875 43.28125 58.90625 
Q 39.453125 66.40625 31.78125 66.40625 
M 31.78125 74.21875 
Q 44.046875 74.21875 50.515625 64.515625 
Q 56.984375 54.828125 56.984375 36.375 
Q 56.984375 17.96875 50.515625 8.265625 
Q 44.046875 -1.421875 31.78125 -1.421875 
Q 19.53125 -1.421875 13.0625 8.265625 
Q 6.59375 17.96875 6.59375 36.375 
Q 6.59375 54.828125 13.0625 64.515625 
Q 19.53125 74.21875 31.78125 74.21875 
" id="BitstreamVeraSans-Roman-30"/>
      <path d="M 10.59375 35.5 
L 73.1875 35.5 
L 73.1875 27.203125 
L 10.59375 27.203125 
z
" id="BitstreamVeraSans-Roman-2212"/>
      <path d="M 10.6875 12.40625 
L 21 12.40625 
L 21 0 
L 10.6875 0 
z
" id="BitstreamVeraSans-Roman-2e"/>
     </defs>
     <g transform="translate(41.2617604773 294.165111833)scale(0.12 -0.12)">
      <use xlink:href="#BitstreamVeraSans-Roman-2212"/>
      <use x="83.7890625" xlink:href="#BitstreamVeraSans-Roman-30"/>
      <use x="147.412109375" xlink:href="#BitstreamVeraSans-Roman-2e"/>
      <use x="179.19921875" xlink:href="#BitstreamVeraSans-Roman-36"/>
     </g>
    </g>
   </g>
   <g id="xtick_2">
    <g id="line2d_3">
     <path d="M 98.01089 278.05694 
L 94.749164 280.284977 
" style="fill:none;stroke:#000000;stroke-linecap:square;"/>
    </g>
    <g id="text_2">
     <!-- −0.4 -->
     <defs>
      <path d="M 37.796875 64.3125 
L 12.890625 25.390625 
L 37.796875 25.390625 
z
M 35.203125 72.90625 
L 47.609375 72.90625 
L 47.609375 25.390625 
L 58.015625 25.390625 
L 58.015625 17.1875 
L 47.609375 17.1875 
L 47.609375 0 
L 37.796875 0 
L 37.796875 17.1875 
L 4.890625 17.1875 
L 4.890625 26.703125 
z
" id="BitstreamVeraSans-Roman-34"/>
     </defs>
     <g transform="translate(74.8420444007 302.79355531)scale(0.12 -0.12)">
      <use xlink:href="#BitstreamVeraSans-Roman-2212"/>
      <use x="83.7890625" xlink:href="#BitstreamVeraSans-Roman-30"/>
      <use x="147.412109375" xlink:href="#BitstreamVeraSans-Roman-2e"/>
      <use x="179.19921875" xlink:href="#BitstreamVeraSans-Roman-34"/>
     </g>
    </g>
   </g>
   <g id="xtick_3">
    <g id="line2d_4">
     <path d="M 132.068528 286.678707 
L 128.847407 288.939218 
" style="fill:none;stroke:#000000;stroke-linecap:square;"/>
    </g>
    <g id="text_3">
     <!-- −0.2 -->
     <defs>
      <path d="M 19.1875 8.296875 
L 53.609375 8.296875 
L 53.609375 0 
L 7.328125 0 
L 7.328125 8.296875 
Q 12.9375 14.109375 22.625 23.890625 
Q 32.328125 33.6875 34.8125 36.53125 
Q 39.546875 41.84375 41.421875 45.53125 
Q 43.3125 49.21875 43.3125 52.78125 
Q 43.3125 58.59375 39.234375 62.25 
Q 35.15625 65.921875 28.609375 65.921875 
Q 23.96875 65.921875 18.8125 64.3125 
Q 13.671875 62.703125 7.8125 59.421875 
L 7.8125 69.390625 
Q 13.765625 71.78125 18.9375 73 
Q 24.125 74.21875 28.421875 74.21875 
Q 39.75 74.21875 46.484375 68.546875 
Q 53.21875 62.890625 53.21875 53.421875 
Q 53.21875 48.921875 51.53125 44.890625 
Q 49.859375 40.875 45.40625 35.40625 
Q 44.1875 33.984375 37.640625 27.21875 
Q 31.109375 20.453125 19.1875 8.296875 
" id="BitstreamVeraSans-Roman-32"/>
     </defs>
     <g transform="translate(108.910591624 311.547457889)scale(0.12 -0.12)">
      <use xlink:href="#BitstreamVeraSans-Roman-2212"/>
      <use x="83.7890625" xlink:href="#BitstreamVeraSans-Roman-30"/>
      <use x="147.412109375" xlink:href="#BitstreamVeraSans-Roman-2e"/>
      <use x="179.19921875" xlink:href="#BitstreamVeraSans-Roman-32"/>
     </g>
    </g>
   </g>
   <g id="xtick_4">
    <g id="line2d_5">
     <path d="M 166.623915 295.42648 
L 163.444941 297.720181 
" style="fill:none;stroke:#000000;stroke-linecap:square;"/>
    </g>
    <g id="text_4">
     <!-- 0.0 -->
     <g transform="translate(148.505941788 320.429575906)scale(0.12 -0.12)">
      <use xlink:href="#BitstreamVeraSans-Roman-30"/>
      <use x="63.623046875" xlink:href="#BitstreamVeraSans-Roman-2e"/>
      <use x="95.41015625" xlink:href="#BitstreamVeraSans-Roman-30"/>
     </g>
    </g>
   </g>
   <g id="xtick_5">
    <g id="line2d_6">
     <path d="M 201.688045 304.303043 
L 198.552814 306.630669 
" style="fill:none;stroke:#000000;stroke-linecap:square;"/>
    </g>
    <g id="text_5">
     <!-- 0.2 -->
     <g transform="translate(183.583513584 329.442747035)scale(0.12 -0.12)">
      <use xlink:href="#BitstreamVeraSans-Roman-30"/>
      <use x="63.623046875" xlink:href="#BitstreamVeraSans-Roman-2e"/>
      <use x="95.41015625" xlink:href="#BitstreamVeraSans-Roman-32"/>
     </g>
    </g>
   </g>
   <g id="xtick_6">
    <g id="line2d_7">
     <path d="M 237.272234 313.31126 
L 234.1824 315.67357 
" style="fill:none;stroke:#000000;stroke-linecap:square;"/>
    </g>
    <g id="text_6">
     <!-- 0.4 -->
     <g transform="translate(219.182491519 338.589893308)scale(0.12 -0.12)">
      <use xlink:href="#BitstreamVeraSans-Roman-30"/>
      <use x="63.623046875" xlink:href="#BitstreamVeraSans-Roman-2e"/>
      <use x="95.41015625" xlink:href="#BitstreamVeraSans-Roman-34"/>
     </g>
    </g>
   </g>
   <g id="xtick_7">
    <g id="line2d_8">
     <path d="M 273.388141 322.454082 
L 270.345417 324.851858 
" style="fill:none;stroke:#000000;stroke-linecap:square;"/>
    </g>
    <g id="text_7">
     <!-- 0.6 -->
     <g transform="translate(255.314588207 347.874024278)scale(0.12 -0.12)">
      <use xlink:href="#BitstreamVeraSans-Roman-30"/>
      <use x="63.623046875" xlink:href="#BitstreamVeraSans-Roman-2e"/>
      <use x="95.41015625" xlink:href="#BitstreamVeraSans-Roman-36"/>
     </g>
    </g>
   </g>
  </g>
  <g id="axis3d_2">
   <g id="line2d_9">
    <path d="M 393.901687 231.872667 
L 276.929684 324.406266 
" style="fill:none;stroke:#000000;stroke-linecap:square;stroke-width:0.75;"/>
   </g>
   <g id="Line3DCollection_2">
    <path d="M 52.83963 97.076819 
L 61.925947 267.41159 
L 279.454544 322.408914 
" style="fill:none;stroke:#e6e6e6;"/>
    <path d="M 75.806962 84.113768 
L 83.613677 253.028029 
L 299.363131 306.659733 
" style="fill:none;stroke:#e6e6e6;"/>
    <path d="M 98.190782 71.480059 
L 104.778102 238.991531 
L 318.769477 291.307862 
" style="fill:none;stroke:#e6e6e6;"/>
    <path d="M 120.013047 59.163299 
L 125.437937 225.289682 
L 337.692352 276.338453 
" style="fill:none;stroke:#e6e6e6;"/>
    <path d="M 141.294627 47.151708 
L 145.611014 211.910658 
L 356.1496 261.737391 
" style="fill:none;stroke:#e6e6e6;"/>
    <path d="M 162.055372 35.434083 
L 165.314336 198.84318 
L 374.158198 247.491243 
" style="fill:none;stroke:#e6e6e6;"/>
    <path d="M 182.31417 23.999763 
L 184.564121 186.076494 
L 391.734308 233.587226 
" style="fill:none;stroke:#e6e6e6;"/>
   </g>
   <g id="xtick_8">
    <g id="line2d_10">
     <path d="M 277.633738 321.948563 
L 283.10024 323.330648 
" style="fill:none;stroke:#000000;stroke-linecap:square;"/>
    </g>
    <g id="text_8">
     <!-- −0.6 -->
     <g transform="translate(277.968984133 344.537099649)scale(0.12 -0.12)">
      <use xlink:href="#BitstreamVeraSans-Roman-2212"/>
      <use x="83.7890625" xlink:href="#BitstreamVeraSans-Roman-30"/>
      <use x="147.412109375" xlink:href="#BitstreamVeraSans-Roman-2e"/>
      <use x="179.19921875" xlink:href="#BitstreamVeraSans-Roman-36"/>
     </g>
    </g>
   </g>
   <g id="xtick_9">
    <g id="line2d_11">
     <path d="M 297.558238 306.211067 
L 302.976914 307.558059 
" style="fill:none;stroke:#000000;stroke-linecap:square;"/>
    </g>
    <g id="text_9">
     <!-- −0.4 -->
     <g transform="translate(297.702236408 328.628318774)scale(0.12 -0.12)">
      <use xlink:href="#BitstreamVeraSans-Roman-2212"/>
      <use x="83.7890625" xlink:href="#BitstreamVeraSans-Roman-30"/>
      <use x="147.412109375" xlink:href="#BitstreamVeraSans-Roman-2e"/>
      <use x="179.19921875" xlink:href="#BitstreamVeraSans-Roman-34"/>
     </g>
    </g>
   </g>
   <g id="xtick_10">
    <g id="line2d_12">
     <path d="M 316.980278 290.870441 
L 322.351787 292.18366 
" style="fill:none;stroke:#000000;stroke-linecap:square;"/>
    </g>
    <g id="text_10">
     <!-- −0.2 -->
     <g transform="translate(316.937875365 313.12070954)scale(0.12 -0.12)">
      <use xlink:href="#BitstreamVeraSans-Roman-2212"/>
      <use x="83.7890625" xlink:href="#BitstreamVeraSans-Roman-30"/>
      <use x="147.412109375" xlink:href="#BitstreamVeraSans-Roman-2e"/>
      <use x="179.19921875" xlink:href="#BitstreamVeraSans-Roman-32"/>
     </g>
    </g>
   </g>
   <g id="xtick_11">
    <g id="line2d_13">
     <path d="M 335.91863 275.91186 
L 341.243626 277.192561 
" style="fill:none;stroke:#000000;stroke-linecap:square;"/>
    </g>
    <g id="text_11">
     <!-- 0.0 -->
     <g transform="translate(340.722301607 297.999286379)scale(0.12 -0.12)">
      <use xlink:href="#BitstreamVeraSans-Roman-30"/>
      <use x="63.623046875" xlink:href="#BitstreamVeraSans-Roman-2e"/>
      <use x="95.41015625" xlink:href="#BitstreamVeraSans-Roman-30"/>
     </g>
    </g>
   </g>
   <g id="xtick_12">
    <g id="line2d_14">
     <path d="M 354.39114 261.321228 
L 359.67027 262.570604 
" style="fill:none;stroke:#000000;stroke-linecap:square;"/>
    </g>
    <g id="text_12">
     <!-- 0.2 -->
     <g transform="translate(359.017563819 283.249800914)scale(0.12 -0.12)">
      <use xlink:href="#BitstreamVeraSans-Roman-30"/>
      <use x="63.623046875" xlink:href="#BitstreamVeraSans-Roman-2e"/>
      <use x="95.41015625" xlink:href="#BitstreamVeraSans-Roman-32"/>
     </g>
    </g>
   </g>
   <g id="xtick_13">
    <g id="line2d_15">
     <path d="M 372.414786 247.085133 
L 377.648694 248.304319 
" style="fill:none;stroke:#000000;stroke-linecap:square;"/>
    </g>
    <g id="text_13">
     <!-- 0.4 -->
     <g transform="translate(376.868289323 268.858697179)scale(0.12 -0.12)">
      <use xlink:href="#BitstreamVeraSans-Roman-30"/>
      <use x="63.623046875" xlink:href="#BitstreamVeraSans-Roman-2e"/>
      <use x="95.41015625" xlink:href="#BitstreamVeraSans-Roman-34"/>
     </g>
    </g>
   </g>
   <g id="xtick_14">
    <g id="line2d_16">
     <path d="M 390.005733 233.190809 
L 395.195055 234.380886 
" style="fill:none;stroke:#000000;stroke-linecap:square;"/>
    </g>
    <g id="text_14">
     <!-- 0.6 -->
     <g transform="translate(394.290485615 254.813070065)scale(0.12 -0.12)">
      <use xlink:href="#BitstreamVeraSans-Roman-30"/>
      <use x="63.623046875" xlink:href="#BitstreamVeraSans-Roman-2e"/>
      <use x="95.41015625" xlink:href="#BitstreamVeraSans-Roman-36"/>
     </g>
    </g>
   </g>
  </g>
  <g id="axis3d_3">
   <g id="line2d_17">
    <path d="M 393.901687 231.872667 
L 402.560748 65.078886 
" style="fill:none;stroke:#000000;stroke-linecap:square;stroke-width:0.75;"/>
   </g>
   <g id="Line3DCollection_3">
    <path d="M 394.066381 228.700274 
L 186.89869 181.415172 
L 59.001569 265.996909 
" style="fill:none;stroke:#e6e6e6;"/>
    <path d="M 395.664368 197.919299 
L 186.505479 151.484584 
L 57.296686 234.571554 
" style="fill:none;stroke:#e6e6e6;"/>
    <path d="M 397.293643 166.535667 
L 186.104894 120.992771 
L 55.557309 202.510375 
" style="fill:none;stroke:#e6e6e6;"/>
    <path d="M 398.955131 134.531505 
L 185.696727 89.923797 
L 53.782379 169.793876 
" style="fill:none;stroke:#e6e6e6;"/>
    <path d="M 400.6498 101.888225 
L 185.28076 58.26112 
L 51.970796 136.401758 
" style="fill:none;stroke:#e6e6e6;"/>
    <path d="M 402.378652 68.586488 
L 184.856768 25.987556 
L 50.121412 102.312876 
" style="fill:none;stroke:#e6e6e6;"/>
   </g>
   <g id="xtick_15">
    <g id="line2d_18">
     <path d="M 392.337863 228.305747 
L 397.527014 229.490148 
" style="fill:none;stroke:#000000;stroke-linecap:square;"/>
    </g>
    <g id="text_15">
     <!-- 0.0 -->
     <g transform="translate(403.366381398 235.721077736)scale(0.12 -0.12)">
      <use xlink:href="#BitstreamVeraSans-Roman-30"/>
      <use x="63.623046875" xlink:href="#BitstreamVeraSans-Roman-2e"/>
      <use x="95.41015625" xlink:href="#BitstreamVeraSans-Roman-30"/>
     </g>
    </g>
   </g>
   <g id="xtick_16">
    <g id="line2d_19">
     <path d="M 393.91854 197.531713 
L 399.159693 198.695285 
" style="fill:none;stroke:#000000;stroke-linecap:square;"/>
    </g>
    <g id="text_16">
     <!-- 0.2 -->
     <g transform="translate(405.143721574 204.977029303)scale(0.12 -0.12)">
      <use xlink:href="#BitstreamVeraSans-Roman-30"/>
      <use x="63.623046875" xlink:href="#BitstreamVeraSans-Roman-2e"/>
      <use x="95.41015625" xlink:href="#BitstreamVeraSans-Roman-32"/>
     </g>
    </g>
   </g>
   <g id="xtick_17">
    <g id="line2d_20">
     <path d="M 395.530154 166.15537 
L 400.82436 167.297067 
" style="fill:none;stroke:#000000;stroke-linecap:square;"/>
    </g>
    <g id="text_17">
     <!-- 0.4 -->
     <g transform="translate(406.955794728 173.632177264)scale(0.12 -0.12)">
      <use xlink:href="#BitstreamVeraSans-Roman-30"/>
      <use x="63.623046875" xlink:href="#BitstreamVeraSans-Roman-2e"/>
      <use x="95.41015625" xlink:href="#BitstreamVeraSans-Roman-34"/>
     </g>
    </g>
   </g>
   <g id="xtick_18">
    <g id="line2d_21">
     <path d="M 397.173622 134.158863 
L 402.521965 135.277587 
" style="fill:none;stroke:#000000;stroke-linecap:square;"/>
    </g>
    <g id="text_18">
     <!-- 0.6 -->
     <g transform="translate(408.803629041 141.668736383)scale(0.12 -0.12)">
      <use xlink:href="#BitstreamVeraSans-Roman-30"/>
      <use x="63.623046875" xlink:href="#BitstreamVeraSans-Roman-2e"/>
      <use x="95.41015625" xlink:href="#BitstreamVeraSans-Roman-36"/>
     </g>
    </g>
   </g>
   <g id="xtick_19">
    <g id="line2d_22">
     <path d="M 398.849899 101.52362 
L 404.253496 102.618222 
" style="fill:none;stroke:#000000;stroke-linecap:square;"/>
    </g>
    <g id="text_19">
     <!-- 0.8 -->
     <defs>
      <path d="M 31.78125 34.625 
Q 24.75 34.625 20.71875 30.859375 
Q 16.703125 27.09375 16.703125 20.515625 
Q 16.703125 13.921875 20.71875 10.15625 
Q 24.75 6.390625 31.78125 6.390625 
Q 38.8125 6.390625 42.859375 10.171875 
Q 46.921875 13.96875 46.921875 20.515625 
Q 46.921875 27.09375 42.890625 30.859375 
Q 38.875 34.625 31.78125 34.625 
M 21.921875 38.8125 
Q 15.578125 40.375 12.03125 44.71875 
Q 8.5 49.078125 8.5 55.328125 
Q 8.5 64.0625 14.71875 69.140625 
Q 20.953125 74.21875 31.78125 74.21875 
Q 42.671875 74.21875 48.875 69.140625 
Q 55.078125 64.0625 55.078125 55.328125 
Q 55.078125 49.078125 51.53125 44.71875 
Q 48 40.375 41.703125 38.8125 
Q 48.828125 37.15625 52.796875 32.3125 
Q 56.78125 27.484375 56.78125 20.515625 
Q 56.78125 9.90625 50.3125 4.234375 
Q 43.84375 -1.421875 31.78125 -1.421875 
Q 19.734375 -1.421875 13.25 4.234375 
Q 6.78125 9.90625 6.78125 20.515625 
Q 6.78125 27.484375 10.78125 32.3125 
Q 14.796875 37.15625 21.921875 38.8125 
M 18.3125 54.390625 
Q 18.3125 48.734375 21.84375 45.5625 
Q 25.390625 42.390625 31.78125 42.390625 
Q 38.140625 42.390625 41.71875 45.5625 
Q 45.3125 48.734375 45.3125 54.390625 
Q 45.3125 60.0625 41.71875 63.234375 
Q 38.140625 66.40625 31.78125 66.40625 
Q 25.390625 66.40625 21.84375 63.234375 
Q 18.3125 60.0625 18.3125 54.390625 
" id="BitstreamVeraSans-Roman-38"/>
     </defs>
     <g transform="translate(410.68829368 109.068212446)scale(0.12 -0.12)">
      <use xlink:href="#BitstreamVeraSans-Roman-30"/>
      <use x="63.623046875" xlink:href="#BitstreamVeraSans-Roman-2e"/>
      <use x="95.41015625" xlink:href="#BitstreamVeraSans-Roman-38"/>
     </g>
    </g>
   </g>
   <g id="xtick_20">
    <g id="line2d_23">
     <path d="M 400.559975 68.230323 
L 406.01998 69.299596 
" style="fill:none;stroke:#000000;stroke-linecap:square;"/>
    </g>
    <g id="text_20">
     <!-- 1.0 -->
     <defs>
      <path d="M 12.40625 8.296875 
L 28.515625 8.296875 
L 28.515625 63.921875 
L 10.984375 60.40625 
L 10.984375 69.390625 
L 28.421875 72.90625 
L 38.28125 72.90625 
L 38.28125 8.296875 
L 54.390625 8.296875 
L 54.390625 0 
L 12.40625 0 
z
" id="BitstreamVeraSans-Roman-31"/>
     </defs>
     <g transform="translate(412.61090086 75.8113665803)scale(0.12 -0.12)">
      <use xlink:href="#BitstreamVeraSans-Roman-31"/>
      <use x="63.623046875" xlink:href="#BitstreamVeraSans-Roman-2e"/>
      <use x="95.41015625" xlink:href="#BitstreamVeraSans-Roman-30"/>
     </g>
    </g>
   </g>
  </g>
  <g id="axes_1">
   <g id="line2d_24">
    <path clip-path="url(#p13621f1232)" d="M 315.70146 267.787246 
L 318.497282 265.143225 
L 320.925235 262.435657 
L 322.977508 259.674818 
L 324.647989 256.871081 
L 325.932253 254.034869 
L 326.827542 251.176605 
L 327.332736 248.306666 
L 327.44832 245.435337 
L 327.176335 242.572771 
L 326.520337 239.728948 
L 325.485337 236.913641 
L 324.077747 234.136378 
L 322.305318 231.406419 
L 320.177074 228.732719 
L 317.70325 226.123911 
L 314.895221 223.588277 
L 311.765435 221.133733 
L 308.327347 218.767807 
L 304.595348 216.497629 
L 300.5847 214.329912 
L 296.311467 212.270945 
L 291.792454 210.326581 
L 287.045136 208.502232 
L 282.087605 206.802859 
L 276.938501 205.232967 
L 271.616961 203.796604 
L 266.142553 202.497357 
L 260.535228 201.338344 
L 254.815261 200.322221 
L 249.003203 199.451173 
L 243.119823 198.726918 
L 237.186063 198.150706 
L 231.222987 197.723315 
L 225.25173 197.445057 
L 219.29345 197.315772 
L 213.36928 197.334835 
L 207.50028 197.501151 
L 201.707384 197.813161 
L 196.011354 198.268838 
L 190.432726 198.865691 
L 184.991762 199.600771 
L 179.708391 200.470663 
L 174.60216 201.4715 
L 169.692173 202.598961 
L 164.997037 203.848273 
L 160.534799 205.214222 
L 156.322886 206.691157 
L 152.378043 208.272997 
L 148.716267 209.95324 
L 145.352738 211.724975 
L 142.301758 213.580892 
L 139.576677 215.513302 
L 137.189826 217.514146 
L 135.152449 219.575018 
L 133.474631 221.687187 
L 132.165233 223.841619 
L 131.231823 226.029 
L 130.680612 228.239772 
L 130.516394 230.464159 
L 130.742484 232.692202 
L 131.360667 234.913799 
L 132.371148 237.118741 
L 133.77251 239.296758 
L 135.561679 241.43756 
L 137.733891 243.530886 
L 140.282681 245.566553 
L 143.199863 247.534507 
L 146.475539 249.424872 
L 150.098104 251.228007 
L 154.054267 252.934557 
L 158.329091 254.535506 
L 162.906029 256.022233 
L 167.766991 257.386563 
L 172.892406 258.620815 
L 178.261309 259.717857 
L 183.851432 260.671145 
L 189.639307 261.474775 
L 195.600386 262.123514 
L 201.709161 262.612842 
L 207.939303 262.938983 
L 214.263796 263.098926 
L 220.655094 263.090454 
L 227.085266 262.912154 
L 233.526158 262.56343 
L 239.94955 262.044506 
L 246.327316 261.356424 
L 252.631582 260.50104 
L 258.834881 259.481006 
L 264.910311 258.299753 
L 270.831674 256.961469 
L 276.573623 255.471064 
L 282.111791 253.834144 
L 287.422915 252.056965 
L 292.484951 250.146397 
L 297.277175 248.109874 
L 301.780275 245.955349 
L 305.976433 243.691243 
L 309.84939 241.32639 
L 313.384504 238.869989 
L 316.568789 236.331545 
L 319.390953 233.720819 
L 321.841415 231.047771 
L 323.912311 228.32251 
L 325.597496 225.555241 
L 326.892531 222.756215 
L 327.794664 219.935681 
L 328.302796 217.103838 
L 328.417449 214.270797 
L 328.140719 211.446533 
L 327.476228 208.640852 
L 326.429069 205.86335 
L 325.005747 203.123387 
L 323.214118 200.43005 
L 321.06332 197.792131 
L 318.563713 195.2181 
L 315.726803 192.716082 
L 312.565179 190.293842 
L 309.09244 187.958763 
L 305.323131 185.717832 
L 301.272668 183.577631 
L 296.957277 181.544322 
L 292.393925 179.623639 
L 287.600257 177.820881 
L 282.594533 176.140908 
L 277.395566 174.588129 
L 272.022663 173.166507 
L 266.495569 171.879548 
L 260.83441 170.730304 
L 255.059639 169.721371 
L 249.191982 168.854884 
L 243.252387 168.132519 
L 237.261974 167.555495 
L 231.241985 167.12457 
L 225.213734 166.840041 
L 219.198557 166.701749 
L 213.217767 166.709074 
L 207.292601 166.86094 
L 201.444174 167.155812 
L 195.693425 167.591702 
L 190.061069 168.166166 
L 184.567545 168.876307 
L 179.23296 169.718777 
L 174.077036 170.689784 
L 169.119053 171.785087 
L 164.377791 173.000008 
L 159.871468 174.329433 
L 155.617682 175.76782 
L 151.633342 177.309204 
L 147.934608 178.947208 
L 144.536821 180.675053 
L 141.454435 182.485571 
L 138.700947 184.371216 
L 136.288832 186.324083 
L 134.229466 188.335923 
L 132.533062 190.398168 
L 131.208596 192.50195 
L 130.263743 194.63813 
L 129.704809 196.797323 
L 129.536668 198.96993 
L 129.762707 201.146173 
L 130.384762 203.316131 
L 131.403077 205.469776 
L 132.816257 207.597021 
L 134.62123 209.687755 
L 136.813219 211.731898 
L 139.385723 213.719443 
L 142.330503 215.640508 
L 145.637585 217.485388 
L 149.295269 219.244606 
L 153.290149 220.908965 
L 157.607148 222.469602 
L 162.229563 223.918041 
L 167.139125 225.246244 
L 172.316064 226.446659 
L 177.739198 227.512274 
L 183.386023 228.436655 
L 189.232821 229.213997 
L 195.254776 229.839155 
L 201.4261 230.307688 
L 207.720171 230.615884 
L 214.109671 230.760785 
L 220.566744 230.740216 
L 227.063144 230.552792 
L 233.570398 230.197933 
L 240.059966 229.675864 
L 246.503403 228.987618 
L 252.87252 228.135027 
L 259.139541 227.120708 
L 265.277262 225.948042 
L 271.259195 224.621156 
L 277.059712 223.14489 
L 282.65418 221.524762 
L 288.019087 219.766934 
L 293.132154 217.878167 
L 297.972442 215.865781 
L 302.520444 213.737601 
L 306.758162 211.501911 
L 310.669182 209.167402 
L 314.238726 206.743122 
L 317.453694 204.238417 
L 320.3027 201.662882 
L 322.776088 199.026308 
L 324.865944 196.338629 
L 326.56609 193.609872 
L 327.872073 190.850105 
L 328.781146 188.069393 
L 329.292233 185.277752 
L 329.405895 182.485106 
L 329.124283 179.701245 
L 328.451089 176.935788 
L 327.39149 174.198152 
L 325.952086 171.497514 
L 324.14084 168.842785 
L 321.967009 166.242582 
L 319.441078 163.705207 
L 316.574689 161.23862 
L 313.380574 158.850427 
L 309.87248 156.547858 
L 306.065107 154.337755 
L 301.974032 152.226559 
L 297.615643 150.2203 
L 293.007075 148.324589 
L 288.166143 146.544609 
L 283.11128 144.88511 
L 277.861473 143.350405 
L 272.436206 141.944364 
L 266.855403 140.670413 
L 261.139367 139.531534 
L 255.308731 138.530259 
L 249.384401 137.66867 
L 243.387507 136.948404 
L 237.339348 136.370644 
L 231.261349 135.936126 
L 225.175005 135.645136 
L 219.101834 135.497511 
L 213.063331 135.49264 
L 207.080915 135.629464 
L 201.175881 135.906477 
L 195.369352 136.321727 
L 189.682223 136.872819 
L 184.135114 137.556913 
L 178.748312 138.370732 
L 173.541718 139.310556 
L 168.534792 140.372234 
L 163.746489 141.551183 
L 159.195203 142.842395 
L 154.898702 144.240439 
L 150.874068 145.739475 
L 147.137625 147.333255 
L 143.704875 149.015139 
L 140.590431 150.778105 
L 137.807941 152.614757 
L 135.370024 154.517352 
L 133.288194 156.477805 
L 131.572793 158.487719 
L 130.232915 160.538403 
L 129.276346 162.620895 
L 128.709488 164.725996 
L 128.537301 166.844293 
L 128.76324 168.966198 
L 129.389199 171.081978 
L 130.415461 173.1818 
L 131.840652 175.255764 
L 133.661706 177.293953 
L 135.873831 179.286474 
L 138.47049 181.223506 
L 141.443393 183.095351 
L 144.782488 184.892483 
L 148.475977 186.605597 
L 152.510338 188.225665 
L 156.870352 189.743986 
L 161.539157 191.152237 
L 166.498299 192.442524 
L 171.727808 193.607435 
L 177.20628 194.640081 
L 182.910969 195.534147 
L 188.817903 196.283932 
L 194.90199 196.884387 
L 201.137157 197.33115 
L 207.496482 197.62058 
L 213.95234 197.749777 
L 220.476556 197.716607 
L 227.040562 197.519715 
L 233.61556 197.158538 
L 240.172681 196.633305 
L 246.683155 195.945038 
L 253.118471 195.095542 
L 259.450537 194.087397 
L 265.65184 192.923933 
L 271.695594 191.609211 
L 277.555885 190.147994 
L 283.207811 188.54571 
L 288.627601 186.80842 
L 293.792739 184.942771 
L 298.682065 182.955958 
L 303.275871 180.855673 
L 307.55598 178.650057 
L 311.505818 176.347647 
L 315.110468 173.957331 
L 318.356714 171.488287 
L 321.233074 168.949936 
L 323.72982 166.35189 
L 325.838983 163.703898 
L 327.554353 161.015797 
L 328.871464 158.297465 
L 329.787574 155.558775 
L 330.301632 152.809546 
L 330.41424 150.059506 
L 330.127605 147.318251 
L 329.445491 144.595207 
L 328.373161 141.899598 
L 326.917314 139.240412 
L 325.086021 136.626373 
L 322.888661 134.065917 
L 320.335848 131.567168 
L 317.439363 129.137915 
L 314.212083 126.785596 
L 310.667909 124.517283 
L 306.821697 122.339664 
L 302.689186 120.259034 
L 298.286934 118.281287 
L 293.632245 116.411902 
L 288.743109 114.655943 
L 283.638132 113.018045 
L 278.336482 111.50242 
L 272.857821 110.112842 
L 267.222254 108.852655 
L 261.450267 107.724765 
L 255.562674 106.731639 
L 249.580566 105.875305 
L 243.525256 105.157356 
L 237.418228 104.578941 
L 231.28109 104.140772 
L 225.135522 103.843122 
L 219.003229 103.685825 
L 212.905887 103.66828 
L 206.865103 103.789444 
L 200.902357 104.047841 
L 195.038955 104.441559 
L 189.295977 104.968253 
L 183.694227 105.625143 
L 178.254176 106.40902 
L 172.995908 107.316248 
L 167.939063 108.342765 
L 163.102776 109.484088 
L 158.50562 110.735317 
L 154.16554 112.091142 
L 150.099789 113.545848 
L 146.32486 115.093326 
L 142.856423 116.727079 
L 139.709249 118.440236 
L 136.897142 120.225563 
L 134.432868 122.075481 
L 132.328083 123.982081 
L 130.59326 125.937143 
L 129.237617 127.93216 
L 128.269049 129.95836 
L 127.69406 132.006735 
L 127.517696 134.06807 
L 127.743484 136.132974 
L 128.373378 138.191916 
L 129.4077 140.235262 
L 130.845102 142.253315 
L 132.68252 144.236358 
L 134.915149 146.174698 
L 137.53642 148.05871 
L 140.537985 149.878888 
L 143.909716 151.625896 
L 147.639717 153.290612 
L 151.714345 154.864186 
L 156.11824 156.338087 
L 160.834374 157.704155 
L 165.844108 158.954651 
L 171.127266 160.082306 
L 176.662215 161.080366 
L 182.425968 161.942639 
L 188.394286 162.663535 
L 194.541801 163.238107 
L 200.842145 163.662079 
L 207.268092 163.931882 
L 213.7917 164.044678 
L 220.38447 163.998379 
L 227.017505 163.791661 
L 233.661671 163.423979 
L 240.287767 162.895563 
L 246.866689 162.207425 
L 253.369594 161.361344 
L 259.768069 160.359858 
L 266.034285 159.206243 
L 272.141151 157.904492 
L 278.062462 156.459283 
L 283.773037 154.875951 
L 289.248844 153.160447 
L 294.467124 151.3193 
L 299.406492 149.359573 
L 304.047034 147.288815 
L 308.37039 145.115014 
L 312.359823 142.846549 
L 316.000275 140.492134 
L 319.278412 138.060772 
L 322.182655 135.561701 
L 324.703201 133.00434 
L 326.832027 130.398245 
L 328.56289 127.753054 
L 329.891313 125.078445 
L 330.81456 122.384084 
L 331.331605 119.679587 
L 331.443091 116.974476 
L 331.151286 114.278142 
L 330.460028 111.599808 
L 329.374666 108.948494 
L 327.902001 106.33299 
L 326.050217 103.761827 
L 323.828817 101.243249 
L 321.248546 98.785194 
L 318.321329 96.395271 
L 315.060189 94.080744 
L 311.479186 91.848517 
L 307.593335 89.70512 
L 303.418542 87.656695 
L 298.971536 85.708991 
L 294.269794 83.867354 
L 289.331483 82.136718 
L 284.17539 80.521604 
L 278.820862 79.026114 
L 273.287746 77.653926 
L 267.59633 76.408295 
L 261.767285 75.292049 
L 255.821612 74.307588 
L 249.780588 73.456884 
L 243.665712 72.741482 
L 237.498658 72.162497 
L 231.301219 71.720617 
L 225.095264 71.4161 
L 218.902685 71.248779 
L 212.745348 71.218058 
L 206.645046 71.322917 
L 200.623448 71.561908 
L 194.702047 71.933162 
L 188.902113 72.434383 
L 183.244635 73.062856 
L 177.750272 73.815445 
L 172.439293 74.688597 
L 167.331523 75.678345 
L 162.446282 76.780308 
L 157.802324 77.989703 
L 153.417771 79.301342 
L 149.310055 80.709645 
L 145.495842 82.208643 
L 141.990969 83.79199 
L 138.810371 85.452976 
L 135.968013 87.184532 
L 133.47681 88.979255 
L 131.348563 90.829416 
L 129.593879 92.726982 
L 128.222102 94.66364 
L 127.241243 96.630816 
L 126.657907 98.619704 
L 126.47723 100.621294 
L 126.702816 102.626405 
L 127.336674 104.625716 
L 128.379173 106.609805 
L 129.828987 108.569188 
L 131.683061 110.494357 
L 133.936575 112.37583 
L 136.582924 114.204189 
L 139.613706 115.970132 
L 143.018716 117.664522 
L 146.785957 119.278433 
L 150.901663 120.803199 
L 155.35033 122.230472 
L 160.114761 123.552263 
L 165.17613 124.760996 
L 170.514047 125.849555 
L 176.106651 126.81133 
L 181.930703 127.640258 
L 187.961694 128.330869 
L 194.173973 128.878319 
L 200.540873 129.278427 
L 207.034852 129.527701 
L 213.627647 129.623366 
L 220.290427 129.563384 
L 226.993957 129.346464 
L 233.708763 128.97208 
L 240.405301 128.440465 
L 247.054123 127.752617 
L 253.626054 126.910289 
L 260.092345 125.915974 
L 266.424847 124.772891 
L 272.596157 123.484958 
L 278.579772 122.056768 
L 284.350226 120.493554 
L 289.883221 118.801153 
L 295.155747 116.985965 
L 300.146191 115.054915 
L 304.834429 113.0154 
L 309.201914 110.875249 
L 313.231742 108.642667 
L 316.908714 106.326192 
L 316.908714 106.326192 
" style="fill:none;opacity:0.3;stroke:#0000ff;stroke-linecap:square;stroke-width:10.0;"/>
   </g>
   <g id="legend_1">
    <g id="patch_6">
     <path d="M 356.80725 32.6565 
L 439.2 32.6565 
L 439.2 7.2 
L 356.80725 7.2 
z
" style="fill:#ffffff;stroke:#000000;stroke-linejoin:miter;"/>
    </g>
    <g id="line2d_25">
     <path d="M 366.88725 18.86175 
L 387.04725 18.86175 
" style="fill:none;opacity:0.3;stroke:#0000ff;stroke-linecap:square;stroke-width:10.0;"/>
    </g>
    <g id="line2d_26"/>
    <g id="text_21">
     <!-- wire -->
     <defs>
      <path d="M 56.203125 29.59375 
L 56.203125 25.203125 
L 14.890625 25.203125 
Q 15.484375 15.921875 20.484375 11.0625 
Q 25.484375 6.203125 34.421875 6.203125 
Q 39.59375 6.203125 44.453125 7.46875 
Q 49.3125 8.734375 54.109375 11.28125 
L 54.109375 2.78125 
Q 49.265625 0.734375 44.1875 -0.34375 
Q 39.109375 -1.421875 33.890625 -1.421875 
Q 20.796875 -1.421875 13.15625 6.1875 
Q 5.515625 13.8125 5.515625 26.8125 
Q 5.515625 40.234375 12.765625 48.109375 
Q 20.015625 56 32.328125 56 
Q 43.359375 56 49.78125 48.890625 
Q 56.203125 41.796875 56.203125 29.59375 
M 47.21875 32.234375 
Q 47.125 39.59375 43.09375 43.984375 
Q 39.0625 48.390625 32.421875 48.390625 
Q 24.90625 48.390625 20.390625 44.140625 
Q 15.875 39.890625 15.1875 32.171875 
z
" id="BitstreamVeraSans-Roman-65"/>
      <path d="M 41.109375 46.296875 
Q 39.59375 47.171875 37.8125 47.578125 
Q 36.03125 48 33.890625 48 
Q 26.265625 48 22.1875 43.046875 
Q 18.109375 38.09375 18.109375 28.8125 
L 18.109375 0 
L 9.078125 0 
L 9.078125 54.6875 
L 18.109375 54.6875 
L 18.109375 46.1875 
Q 20.953125 51.171875 25.484375 53.578125 
Q 30.03125 56 36.53125 56 
Q 37.453125 56 38.578125 55.875 
Q 39.703125 55.765625 41.0625 55.515625 
z
" id="BitstreamVeraSans-Roman-72"/>
      <path d="M 9.421875 54.6875 
L 18.40625 54.6875 
L 18.40625 0 
L 9.421875 0 
z
M 9.421875 75.984375 
L 18.40625 75.984375 
L 18.40625 64.59375 
L 9.421875 64.59375 
z
" id="BitstreamVeraSans-Roman-69"/>
      <path d="M 4.203125 54.6875 
L 13.1875 54.6875 
L 24.421875 12.015625 
L 35.59375 54.6875 
L 46.1875 54.6875 
L 57.421875 12.015625 
L 68.609375 54.6875 
L 77.59375 54.6875 
L 63.28125 0 
L 52.6875 0 
L 40.921875 44.828125 
L 29.109375 0 
L 18.5 0 
z
" id="BitstreamVeraSans-Roman-77"/>
     </defs>
     <g transform="translate(402.88725 23.90175)scale(0.144 -0.144)">
      <use xlink:href="#BitstreamVeraSans-Roman-77"/>
      <use x="81.787109375" xlink:href="#BitstreamVeraSans-Roman-69"/>
      <use x="109.5703125" xlink:href="#BitstreamVeraSans-Roman-72"/>
      <use x="150.65234375" xlink:href="#BitstreamVeraSans-Roman-65"/>
     </g>
    </g>
   </g>
  </g>
 </g>
 <defs>
  <clipPath id="p13621f1232">
   <rect height="345.6" width="446.4" x="0.0" y="-5.68434188608e-14"/>
  </clipPath>
 </defs>
</svg>
